<svg width="81" height="54" viewBox="0 0 81 54" fill="none" xmlns="http://www.w3.org/2000/svg">
<g clip-path="url(#clip0_8_557)">
<mask id="path-1-inside-1_8_557" fill="white">
<path fill-rule="evenodd" clip-rule="evenodd" d="M19.4813 2.86133L5.82469 2.86133C4.99626 2.86133 4.32469 3.53291 4.32469 4.36133C4.32469 5.18976 4.99626 5.86133 5.82469 5.86133H18.644L20.711 9.44146C20.7171 9.45189 20.7232 9.46222 20.7294 9.47244C20.6111 9.56231 20.4946 9.65454 20.3802 9.74909L20.3537 9.7654L9.67944 16.4401C8.4266 17.2235 8.4266 19.0482 9.67943 19.8316L20.3537 26.5062C20.4158 26.5451 20.4788 26.5801 20.5425 26.6113C22.3931 28.081 24.7348 28.9589 27.2816 28.9589C33.2708 28.9589 38.126 24.1037 38.126 18.1144C38.126 12.1252 33.2708 7.26999 27.2816 7.26999C25.8928 7.26999 24.5651 7.53103 23.3447 8.00671C23.3334 7.98479 23.3216 7.96304 23.3091 7.94146L20.8235 3.63627C20.7946 3.58397 20.7626 3.53357 20.7278 3.48533C20.6007 3.30808 20.4402 3.16577 20.2601 3.06204C20.0803 2.95801 19.8769 2.89024 19.6599 2.86872C19.6007 2.86273 19.5411 2.86024 19.4813 2.86133ZM21.9389 12.3124L12.6259 18.1358L21.9051 23.9382L22.1539 24.0601L22.4082 24.262C23.7473 25.3255 25.4363 25.9589 27.2816 25.9589C31.6139 25.9589 35.126 22.4468 35.126 18.1144C35.126 13.7821 31.6139 10.27 27.2816 10.27C25.3824 10.27 23.6479 10.9411 22.2906 12.0621L22.1213 12.202L21.9389 12.3124ZM25.4741 20.1906C26.5971 20.1906 27.5074 19.261 27.5074 18.1143C27.5074 16.9676 26.5971 16.038 25.4741 16.038C24.3511 16.038 23.4408 16.9676 23.4408 18.1143C23.4408 19.261 24.3511 20.1906 25.4741 20.1906Z"/>
</mask>
<path fill-rule="evenodd" clip-rule="evenodd" d="M19.4813 2.86133L5.82469 2.86133C4.99626 2.86133 4.32469 3.53291 4.32469 4.36133C4.32469 5.18976 4.99626 5.86133 5.82469 5.86133H18.644L20.711 9.44146C20.7171 9.45189 20.7232 9.46222 20.7294 9.47244C20.6111 9.56231 20.4946 9.65454 20.3802 9.74909L20.3537 9.7654L9.67944 16.4401C8.4266 17.2235 8.4266 19.0482 9.67943 19.8316L20.3537 26.5062C20.4158 26.5451 20.4788 26.5801 20.5425 26.6113C22.3931 28.081 24.7348 28.9589 27.2816 28.9589C33.2708 28.9589 38.126 24.1037 38.126 18.1144C38.126 12.1252 33.2708 7.26999 27.2816 7.26999C25.8928 7.26999 24.5651 7.53103 23.3447 8.00671C23.3334 7.98479 23.3216 7.96304 23.3091 7.94146L20.8235 3.63627C20.7946 3.58397 20.7626 3.53357 20.7278 3.48533C20.6007 3.30808 20.4402 3.16577 20.2601 3.06204C20.0803 2.95801 19.8769 2.89024 19.6599 2.86872C19.6007 2.86273 19.5411 2.86024 19.4813 2.86133ZM21.9389 12.3124L12.6259 18.1358L21.9051 23.9382L22.1539 24.0601L22.4082 24.262C23.7473 25.3255 25.4363 25.9589 27.2816 25.9589C31.6139 25.9589 35.126 22.4468 35.126 18.1144C35.126 13.7821 31.6139 10.27 27.2816 10.27C25.3824 10.27 23.6479 10.9411 22.2906 12.0621L22.1213 12.202L21.9389 12.3124ZM25.4741 20.1906C26.5971 20.1906 27.5074 19.261 27.5074 18.1143C27.5074 16.9676 26.5971 16.038 25.4741 16.038C24.3511 16.038 23.4408 16.9676 23.4408 18.1143C23.4408 19.261 24.3511 20.1906 25.4741 20.1906Z" fill="#665D57"/>
<path d="M19.4813 2.86133V5.86133H19.5087L19.5361 5.86083L19.4813 2.86133ZM18.644 5.86133L21.2421 4.36133L20.3761 2.86133H18.644V5.86133ZM20.711 9.44146L23.3092 7.94159L23.3091 7.94146L20.711 9.44146ZM20.7294 9.47244L22.5437 11.8617L24.7003 10.2241L23.2914 7.91155L20.7294 9.47244ZM20.3802 9.74909L21.9521 12.3043L22.1298 12.195L22.2906 12.0621L20.3802 9.74909ZM20.3537 9.7654L18.7817 7.21022L18.7724 7.21595L18.7631 7.22175L20.3537 9.7654ZM9.67944 16.4401L8.08888 13.8964L8.08888 13.8964L9.67944 16.4401ZM9.67943 19.8316L11.27 17.2879L11.27 17.2879L9.67943 19.8316ZM20.3537 26.5062L21.9443 23.9626L21.9442 23.9626L20.3537 26.5062ZM20.5425 26.6113L22.4082 24.262L22.1539 24.0601L21.8623 23.9172L20.5425 26.6113ZM23.3447 8.00671L20.6766 9.37827L21.9135 11.7844L24.4342 10.8019L23.3447 8.00671ZM23.3091 7.94146L20.711 9.44146L20.7111 9.44151L23.3091 7.94146ZM20.8235 3.63627L18.1984 5.08852L18.2117 5.11252L18.2254 5.13627L20.8235 3.63627ZM20.7278 3.48533L18.2904 5.2343L18.2939 5.23922L20.7278 3.48533ZM20.2601 3.06204L18.7578 5.6588L18.7627 5.66159L20.2601 3.06204ZM19.6599 2.86872L19.3578 5.85348L19.3639 5.85408L19.6599 2.86872ZM12.6259 18.1358L11.0354 15.5922L6.96755 18.1358L11.0354 20.6795L12.6259 18.1358ZM21.9389 12.3124L20.3856 9.74579L20.3669 9.75712L20.3483 9.76873L21.9389 12.3124ZM21.9051 23.9382L20.3146 26.4818L20.4461 26.564L20.5853 26.6322L21.9051 23.9382ZM22.1539 24.0601L24.0197 21.7108L23.7654 21.5089L23.4738 21.366L22.1539 24.0601ZM22.4082 24.262L20.5425 26.6113L20.5425 26.6113L22.4082 24.262ZM22.2906 12.0621L20.3802 9.74908L20.3802 9.7491L22.2906 12.0621ZM22.1213 12.202L23.6746 14.7686L23.8624 14.6549L24.0318 14.515L22.1213 12.202ZM5.82469 5.86133H19.4813V-0.138665L5.82469 -0.138665V5.86133ZM7.32469 4.36133C7.32469 5.18976 6.65312 5.86133 5.82469 5.86133V-0.138665C3.33941 -0.138665 1.32469 1.87605 1.32469 4.36133L7.32469 4.36133ZM5.82469 2.86133C6.65312 2.86133 7.32469 3.53291 7.32469 4.36133L1.32469 4.36133C1.32469 6.84662 3.33941 8.86133 5.82469 8.86133V2.86133ZM18.644 2.86133L5.82469 2.86133V8.86133H18.644V2.86133ZM23.3091 7.94146L21.2421 4.36133L16.046 7.36133L18.113 10.9415L23.3091 7.94146ZM23.2914 7.91155C23.2974 7.92153 23.3034 7.93155 23.3092 7.94159L18.1129 10.9413C18.1307 10.9722 18.1489 11.0029 18.1675 11.0333L23.2914 7.91155ZM22.2906 12.0621C22.3736 11.9936 22.4579 11.9268 22.5437 11.8617L18.9152 7.08321C18.7642 7.19782 18.6157 7.31546 18.4697 7.43603L22.2906 12.0621ZM21.9256 12.3206L21.9521 12.3043L18.8082 7.19391L18.7817 7.21022L21.9256 12.3206ZM11.27 18.9837L21.9442 12.309L18.7631 7.22175L8.08888 13.8964L11.27 18.9837ZM11.27 17.2879C11.8964 17.6796 11.8964 18.592 11.27 18.9837L8.08888 13.8964C4.95679 15.8549 4.95678 20.4167 8.08888 22.3752L11.27 17.2879ZM21.9442 23.9626L11.27 17.2879L8.08888 22.3752L18.7631 29.0499L21.9442 23.9626ZM21.8623 23.9172C21.8919 23.9317 21.9192 23.947 21.9443 23.9626L18.7631 29.0499C18.9124 29.1433 19.0658 29.2285 19.2226 29.3053L21.8623 23.9172ZM27.2816 25.9589C25.4363 25.9589 23.7473 25.3255 22.4082 24.262L18.6767 28.9605C21.0388 30.8365 24.0332 31.9589 27.2816 31.9589V25.9589ZM35.126 18.1144C35.126 22.4468 31.6139 25.9589 27.2816 25.9589V31.9589C34.9277 31.9589 41.126 25.7605 41.126 18.1144H35.126ZM27.2816 10.27C31.6139 10.27 35.126 13.7821 35.126 18.1144H41.126C41.126 10.4684 34.9277 4.26999 27.2816 4.26999V10.27ZM24.4342 10.8019C25.3129 10.4594 26.2715 10.27 27.2816 10.27V4.26999C25.5142 4.26999 23.8173 4.60266 22.2552 5.21153L24.4342 10.8019ZM20.7111 9.44151C20.6991 9.42086 20.6876 9.39977 20.6766 9.37827L26.0128 6.63515C25.9792 6.56982 25.944 6.50522 25.9072 6.44141L20.7111 9.44151ZM18.2254 5.13627L20.711 9.44146L25.9072 6.44146L23.4216 2.13627L18.2254 5.13627ZM18.2939 5.23922C18.2594 5.19128 18.2275 5.14099 18.1984 5.08852L23.4486 2.18403C23.3617 2.02694 23.2658 1.87586 23.1617 1.73144L18.2939 5.23922ZM18.7627 5.66159C18.5812 5.55705 18.4182 5.41245 18.2904 5.23429L23.1653 1.73636C22.7831 1.20372 22.2992 0.77449 21.7576 0.462497L18.7627 5.66159ZM19.3639 5.85408C19.1457 5.83246 18.9391 5.76365 18.7578 5.65879L21.7624 0.465297C21.2215 0.152376 20.608 -0.0519794 19.9559 -0.116642L19.3639 5.85408ZM19.5361 5.86083C19.4761 5.86193 19.4166 5.85942 19.3578 5.85347L19.9619 -0.116034C19.7848 -0.133961 19.606 -0.141448 19.4264 -0.138164L19.5361 5.86083ZM14.2165 20.6795L23.5294 14.856L20.3483 9.76873L11.0354 15.5922L14.2165 20.6795ZM23.4957 21.3945L14.2165 15.5922L11.0354 20.6795L20.3146 26.4818L23.4957 21.3945ZM23.4738 21.366L23.225 21.2441L20.5853 26.6322L20.8341 26.7541L23.4738 21.366ZM24.274 21.9128L24.0197 21.7108L20.2882 26.4093L20.5425 26.6113L24.274 21.9128ZM27.2816 22.9589C26.1375 22.9589 25.1012 22.5698 24.274 21.9128L20.5425 26.6113C22.3934 28.0812 24.7352 28.9589 27.2816 28.9589V22.9589ZM32.126 18.1144C32.126 20.79 29.9571 22.9589 27.2816 22.9589V28.9589C33.2708 28.9589 38.126 24.1037 38.126 18.1144H32.126ZM27.2816 13.27C29.9571 13.27 32.126 15.4389 32.126 18.1144H38.126C38.126 12.1252 33.2708 7.26999 27.2816 7.26999V13.27ZM24.201 14.3752C25.0402 13.6821 26.1046 13.27 27.2816 13.27V7.26999C24.6602 7.26999 22.2556 8.20011 20.3802 9.74908L24.201 14.3752ZM24.0318 14.515L24.2011 14.3752L20.3802 9.7491L20.2108 9.88893L24.0318 14.515ZM23.4921 14.879L23.6746 14.7686L20.568 9.63539L20.3856 9.74579L23.4921 14.879ZM24.5074 18.1143C24.5074 17.6637 24.8814 17.1906 25.4741 17.1906V23.1906C28.3128 23.1906 30.5074 20.8584 30.5074 18.1143H24.5074ZM25.4741 19.038C24.8814 19.038 24.5074 18.5649 24.5074 18.1143H30.5074C30.5074 15.3702 28.3128 13.038 25.4741 13.038V19.038ZM26.4408 18.1143C26.4408 18.5649 26.0669 19.038 25.4741 19.038V13.038C22.6354 13.038 20.4408 15.3702 20.4408 18.1143H26.4408ZM25.4741 17.1906C26.0668 17.1906 26.4408 17.6637 26.4408 18.1143H20.4408C20.4408 20.8584 22.6354 23.1906 25.4741 23.1906V17.1906Z" fill="#665D57" mask="url(#path-1-inside-1_8_557)"/>
<path fill-rule="evenodd" clip-rule="evenodd" d="M29.101 28.7707C29.0571 29.1176 29.0346 29.4707 29.0346 29.8289C29.0346 32.1125 29.9517 34.1907 31.452 35.7433L30.6408 36.8787L27.1191 34.9048C27.0271 34.8271 26.921 34.759 26.8012 34.7032C26.3155 34.4765 25.7258 34.5064 25.2396 34.7383C25.0024 34.8431 24.7883 34.9952 24.6208 35.1903C24.5329 35.2927 24.4633 35.4006 24.4114 35.5114L15.795 47.5723H12.0569C11.2284 47.5723 10.5569 48.2439 10.5569 49.0723C10.5569 49.9007 11.2284 50.5723 12.0569 50.5723H16.5358C17.1382 50.5723 17.6576 50.2172 17.8962 49.705L26.3634 37.8529L29.8857 39.8271C29.9776 39.9047 30.0836 39.9726 30.2031 40.0284C30.6882 40.2548 31.277 40.2252 31.7629 39.9941C32.0008 39.8893 32.2156 39.737 32.3835 39.5413C32.4714 39.4389 32.541 39.331 32.5929 39.2203L33.8211 37.5011C35.0987 38.1594 36.5596 38.5329 38.1115 38.5329C39.3287 38.5329 40.4899 38.3032 41.5505 37.8865L48.427 49.7969C48.4559 49.8492 48.4879 49.8996 48.5226 49.9478C48.652 50.1283 48.816 50.2726 49.0001 50.3768C49.1726 50.475 49.3665 50.5399 49.5731 50.5628C49.6388 50.5703 49.705 50.5734 49.7715 50.5721H54.6346C55.4631 50.5721 56.1346 49.9005 56.1346 49.0721C56.1346 48.2436 55.4631 47.5721 54.6346 47.5721H50.6066L44.1263 36.3478C46.0045 34.7531 47.1885 32.4236 47.1885 29.8289C47.1885 25.0218 43.1246 21.1249 38.1115 21.1249C37.9654 21.1249 37.8201 21.1282 37.6756 21.1347C37.321 22.3453 36.7609 23.4682 36.0356 24.4629C36.6773 24.2449 37.3748 24.1249 38.1115 24.1249C41.5876 24.1249 44.1885 26.796 44.1885 29.8289C44.1885 32.8617 41.5876 35.5329 38.1115 35.5329C34.6354 35.5329 32.0346 32.8617 32.0346 29.8289C32.0346 29.0335 32.2134 28.2631 32.54 27.5592C31.4889 28.1452 30.3302 28.5614 29.101 28.7707Z" fill="#665D57"/>
<path fill-rule="evenodd" clip-rule="evenodd" d="M43.9926 36.4654C43.9709 36.4842 43.9491 36.5029 43.9271 36.5215L47.3731 42.49C50.1368 43.6743 53.4893 44.368 57.1032 44.368C60.0901 44.368 62.8985 43.8942 65.3434 43.0611L69.4039 50.0941C69.4308 50.1426 69.4602 50.1894 69.4921 50.2344C69.628 50.4272 69.803 50.5793 69.9999 50.6862C70.2296 50.811 70.4891 50.8742 70.7511 50.8685L75.6111 50.8685C76.4396 50.8685 77.1111 50.1969 77.1111 49.3685C77.1111 48.54 76.4396 47.8685 75.6111 47.8685L71.5831 47.8685L68.1249 41.8787C71.8612 39.9303 74.2356 37.0105 74.2356 33.7468C74.2356 27.8809 66.5652 23.1256 57.1032 23.1256C52.7877 23.1256 48.845 24.1148 45.8326 25.7473C46.3423 26.6178 46.7005 27.581 46.8728 28.6038C48.7249 27.5227 51.1358 26.7009 53.8937 26.3348L51.2922 30.8407C50.878 31.5582 51.1238 32.4756 51.8412 32.8898C52.5587 33.304 53.4761 33.0582 53.8903 32.3407L56.5222 27.7822L63.8096 40.4045C61.8341 41.0104 59.5594 41.368 57.1032 41.368C52.84 41.368 49.1235 40.2907 46.5695 38.7074C45.4098 37.9884 44.5686 37.225 43.9926 36.4654ZM67.6369 38.7074C70.2364 37.0958 71.2356 35.2603 71.2356 33.7468C71.2356 32.2333 70.2364 30.3978 67.6369 28.7862C65.4852 27.4523 62.5084 26.4776 59.0748 26.2036L66.6232 39.2777C66.9785 39.0963 67.3169 38.9058 67.6369 38.7074Z" fill="#665D57"/>
</g>
<defs>
<clipPath id="clip0_8_557">
<rect width="81" height="54" fill="white"/>
</clipPath>
</defs>
</svg>
