<svg width="178" height="103" viewBox="0 0 178 103" fill="none" xmlns="http://www.w3.org/2000/svg">
<path fill-rule="evenodd" clip-rule="evenodd" d="M122.133 2.6193L134.69 7.99009C134.745 8.01259 134.799 8.03833 134.851 8.06711C135.042 8.17224 135.202 8.31456 135.327 8.48093C135.452 8.64711 135.543 8.84106 135.59 9.05404C135.603 9.11207 135.613 9.17097 135.619 9.23044L136.211 14.1663C136.214 14.191 136.216 14.2157 136.218 14.2402C137.527 14.2828 138.851 14.565 140.128 15.1112C145.634 17.4666 148.189 23.84 145.833 29.3466C145.421 30.3099 144.886 31.1829 144.254 31.9551C144.382 32.0033 144.509 32.0545 144.636 32.1088C147.783 33.455 149.809 36.298 150.176 39.3731C153.531 39.1118 157.443 39.7627 161.311 41.4172C170.01 45.1383 175.192 52.527 172.885 57.9203C171.602 60.921 168.271 62.6717 164.069 62.9937L164.893 69.8608L168.596 71.445C169.358 71.7708 169.711 72.6524 169.386 73.414C169.06 74.1757 168.178 74.529 167.417 74.2032L162.948 72.2919C162.705 72.1941 162.491 72.034 162.329 71.829C162.19 71.6532 162.089 71.4445 162.04 71.2138C162.028 71.1599 162.02 71.1053 162.014 71.0502L161.047 62.9869C159.401 62.8619 157.676 62.5436 155.928 62.0235V85.7007C155.928 92.3281 150.555 97.7007 143.928 97.7007H17.928C11.3006 97.7007 5.92798 92.3281 5.92798 85.7007V50.3889C5.92798 43.7615 11.3006 38.3889 17.928 38.3889H132.317C132.427 37.7657 132.609 37.1465 132.867 36.5416C133.003 36.224 133.157 35.919 133.326 35.6271C132.744 35.4864 132.166 35.2956 131.598 35.0524C129.256 34.0508 127.448 32.3227 126.325 30.2436C126.279 30.1899 126.235 30.133 126.193 30.0728L119.004 19.7381C118.16 18.5251 118.877 16.8474 120.337 16.6198L132.776 14.6809L132.807 14.6763C132.95 14.6344 133.093 14.5954 133.237 14.5593C133.235 14.5475 133.234 14.5356 133.232 14.5236L132.74 10.4191L120.954 5.37756C120.192 5.05176 119.839 4.17019 120.164 3.40852C120.49 2.64685 121.372 2.2935 122.133 2.6193ZM153.928 61.3422C153.604 61.2178 153.28 61.0863 152.956 60.9479C149.79 59.5935 147.09 57.7533 145.047 55.7003L145.723 61.3388L149.427 62.923C150.188 63.2488 150.542 64.1303 150.216 64.892C149.89 65.6537 149.009 66.007 148.247 65.6812L143.776 63.7687C143.714 63.7438 143.654 63.7148 143.597 63.6822C143.416 63.5798 143.263 63.4439 143.143 63.2858C143.015 63.1176 142.921 62.9204 142.873 62.7035C142.86 62.6455 142.85 62.5867 142.844 62.5273L141.206 48.8722C140.067 48.8382 138.909 48.5927 137.79 48.114C136.363 47.5037 135.167 46.5858 134.251 45.4781L132.446 46.5757C132.354 46.6571 132.248 46.729 132.127 46.7886C131.896 46.9024 131.638 46.958 131.378 46.9608C130.841 46.9822 130.288 46.7778 129.931 46.3789C129.843 46.2806 129.772 46.1764 129.718 46.069L127.256 42.8686L114.81 50.4358C114.389 50.8129 113.772 50.935 113.218 50.6981L109.1 48.9367C108.338 48.6109 107.985 47.7293 108.311 46.9676C108.637 46.206 109.518 45.8526 110.28 46.1784L113.717 47.6485L125.657 40.3889H17.928C12.4051 40.3889 7.92798 44.8661 7.92798 50.3889V85.7007C7.92798 91.2235 12.4051 95.7007 17.928 95.7007H143.928C149.451 95.7007 153.928 91.2235 153.928 85.7007V61.3422ZM144.291 49.4019C144.559 50.0889 144.953 50.8244 145.498 51.6007C147.223 54.061 150.217 56.5131 154.136 58.1896C156.395 59.1556 158.627 59.7214 160.681 59.9412L158.945 45.47L154.732 48.6262C154.069 49.1229 153.129 48.9882 152.633 48.3252C152.136 47.6622 152.271 46.722 152.934 46.2253L157.098 43.1056C154.517 42.3852 152.066 42.18 149.988 42.403C149.881 42.8336 149.738 43.2608 149.559 43.6811C148.538 46.0668 146.533 47.743 144.179 48.4705L144.291 49.4019ZM136.938 35.8748C138.544 35.7134 140.093 35.1947 141.469 34.3658C142.127 34.4221 142.797 34.585 143.456 34.867C146.652 36.2341 147.993 39.7128 146.8 42.5013C145.608 45.2898 142.166 46.7228 138.97 45.3558C135.774 43.9887 134.433 40.5099 135.626 37.7215C135.93 37.0096 136.381 36.386 136.938 35.8748ZM129.11 40.4553C129.099 40.433 129.087 40.4109 129.074 40.3889H132.208C132.264 41.2587 132.453 42.1152 132.764 42.9302L131.572 43.6552L129.11 40.4553ZM122.38 19.3377L133.232 17.6461L133.443 17.6163L133.654 17.5543C135.343 17.0574 137.202 17.1225 138.948 17.8694C142.931 19.5732 144.779 24.1835 143.075 28.1668C141.371 32.1501 136.761 33.9979 132.778 32.2941C131.081 31.5684 129.777 30.3218 128.964 28.8174L128.81 28.5317L128.629 28.3218L122.38 19.3377ZM136.07 25.1705C135.619 26.2248 134.417 26.7215 133.384 26.2798C132.352 25.8382 131.88 24.6255 132.331 23.5712C132.782 22.5168 133.985 22.0201 135.017 22.4618C136.05 22.9034 136.521 24.1161 136.07 25.1705ZM40.9677 80.3408C40.9677 81.3648 40.3277 81.8768 39.0477 81.8768C37.7891 81.8768 37.1597 81.3648 37.1597 80.3408V56.2128C37.1597 55.1888 37.7891 54.6768 39.0477 54.6768C40.3277 54.6768 40.9677 55.1888 40.9677 56.2128V65.1088H42.8557C43.1757 65.1088 43.4317 65.1941 43.6237 65.3648V56.2128C43.6237 55.1888 44.2531 54.6768 45.5117 54.6768C46.7917 54.6768 47.4317 55.1888 47.4317 56.2128V80.3408C47.4317 81.3648 46.7917 81.8768 45.5117 81.8768C44.2531 81.8768 43.6237 81.3648 43.6237 80.3408V68.0848C43.4317 68.2555 43.1757 68.3408 42.8557 68.3408H40.9677V80.3408ZM22.7917 78.7088C21.6184 79.1995 20.7971 78.9435 20.3277 77.9408C19.8797 76.9381 20.0824 76.2555 20.9357 75.8928C23.2824 74.8901 25.4797 73.2155 27.5277 70.8688C29.5757 68.5221 30.5997 65.8448 30.5997 62.8368V58.9328C30.5997 58.8475 30.5891 58.7728 30.5677 58.7088C30.5464 58.6448 30.4611 58.6128 30.3117 58.6128H22.0557C21.2664 58.6128 20.8611 58.0795 20.8397 57.0128C20.8397 55.9248 21.2451 55.3808 22.0557 55.3808H32.3917C33.1597 55.3808 33.6824 55.5835 33.9597 55.9888C34.2584 56.3728 34.4077 56.8101 34.4077 57.3008V63.5088C34.4077 65.3435 33.5757 67.8821 31.9117 71.1248C30.2691 74.3461 27.2291 76.8741 22.7917 78.7088ZM76.3472 80.3408C76.3472 81.3648 75.7072 81.8768 74.4272 81.8768C73.1686 81.8768 72.5392 81.3648 72.5392 80.3408V56.2128C72.5392 55.1888 73.1686 54.6768 74.4272 54.6768C75.7072 54.6768 76.3472 55.1888 76.3472 56.2128V80.3408ZM67.7072 75.7648C67.7072 76.7888 67.0672 77.3115 65.7872 77.3328C64.5286 77.3328 63.8992 76.8101 63.8992 75.7648V58.9328C63.8992 58.8475 63.8886 58.7728 63.8672 58.7088C63.8459 58.6448 63.7606 58.6128 63.6112 58.6128H56.8592C56.7099 58.6128 56.6246 58.6448 56.6032 58.7088C56.5819 58.7728 56.5712 58.8475 56.5712 58.9328V73.7808C56.5712 73.8661 56.5819 73.9408 56.6032 74.0048C56.6246 74.0688 56.7099 74.1008 56.8592 74.1008H62.0112C62.8219 74.1008 63.2166 74.6448 63.1952 75.7328C63.1952 76.7995 62.8006 77.3328 62.0112 77.3328H54.7792C54.0112 77.3328 53.4779 77.1408 53.1792 76.7568C52.9019 76.3515 52.7632 75.9035 52.7632 75.4128V57.3008C52.7632 56.8101 52.9019 56.3728 53.1792 55.9888C53.4779 55.5835 54.0112 55.3808 54.7792 55.3808H65.6912C66.4592 55.3808 66.9819 55.5835 67.2592 55.9888C67.5579 56.3728 67.7072 56.8101 67.7072 57.3008V75.7648ZM109.843 77.4288C109.843 79.2635 109.107 80.8315 107.635 82.1328C106.163 83.4555 104.371 84.1168 102.259 84.1168C100.125 84.1168 98.3121 83.4661 96.8187 82.1648C95.3467 80.8635 94.6107 79.2848 94.6107 77.4288C94.6107 75.5728 95.3467 73.9941 96.8187 72.6928C98.3121 71.3915 100.125 70.7408 102.259 70.7408C104.371 70.7408 106.163 71.4021 107.635 72.7248C109.107 74.0261 109.843 75.5941 109.843 77.4288ZM97.8747 68.4048C98.2161 69.3861 97.7894 70.0795 96.5947 70.4848C95.4001 70.8901 94.6321 70.6021 94.2907 69.6208L90.4827 57.9728L84.3387 76.4368C83.9974 77.4181 83.2294 77.7061 82.0347 77.3008C80.8401 76.8955 80.4134 76.2021 80.7547 75.2208L87.0267 56.3408C87.3681 55.3595 88.1361 55.0821 89.3307 55.5088C89.8641 55.7008 90.2481 55.9461 90.4827 56.2448C90.7174 55.9461 91.1014 55.7008 91.6347 55.5088C92.8294 55.0821 93.5974 55.3595 93.9387 56.3408L97.8747 68.4048ZM104.755 68.7248C104.755 69.7488 104.115 70.2608 102.835 70.2608C101.576 70.2608 100.947 69.7488 100.947 68.7248V56.2128C100.947 55.1888 101.576 54.6768 102.835 54.6768C104.115 54.6768 104.755 55.1888 104.755 56.2128V68.7248ZM106.035 77.4288C106.035 76.4688 105.661 75.6581 104.915 74.9968C104.189 74.3355 103.304 74.0048 102.259 74.0048C101.213 74.0048 100.317 74.3355 99.5707 74.9968C98.8454 75.6581 98.4827 76.4688 98.4827 77.4288C98.4827 78.3888 98.8454 79.1995 99.5707 79.8608C100.317 80.5221 101.213 80.8528 102.259 80.8528C103.304 80.8528 104.189 80.5221 104.915 79.8608C105.661 79.1995 106.035 78.3888 106.035 77.4288ZM110.739 61.8768C110.739 62.5595 110.493 63.1461 110.003 63.6368C109.533 64.1061 108.957 64.3408 108.275 64.3408C107.592 64.3408 107.005 64.1061 106.515 63.6368C106.045 63.1461 105.811 62.5595 105.811 61.8768C105.811 61.1941 106.045 60.6181 106.515 60.1488C107.005 59.6581 107.592 59.4128 108.275 59.4128C108.957 59.4128 109.533 59.6581 110.003 60.1488C110.493 60.6181 110.739 61.1941 110.739 61.8768ZM125.011 76.0848C125.011 76.5755 124.861 77.0235 124.563 77.4288C124.285 77.8128 123.763 78.0048 122.995 78.0048H113.843C113.032 78.0048 112.627 77.4715 112.627 76.4048C112.648 75.3168 113.053 74.7728 113.843 74.7728H120.915C121.064 74.7728 121.149 74.7408 121.171 74.6768C121.192 74.6128 121.203 74.5381 121.203 74.4528V72.4048C119.923 72.1275 118.803 71.5515 117.843 70.6768C116.456 69.3968 115.763 67.8821 115.763 66.1328C115.763 64.3621 116.456 62.8475 117.843 61.5888C117.949 61.5035 118.067 61.4075 118.195 61.3008H114.771C113.981 61.3008 113.576 60.7675 113.555 59.7008C113.555 58.6128 113.96 58.0688 114.771 58.0688H121.203V56.0528C121.203 55.0288 121.832 54.5168 123.091 54.5168C124.371 54.5168 125.011 55.0288 125.011 56.0528V58.0688H131.155C131.987 58.0688 132.392 58.6128 132.371 59.7008C132.371 60.7675 131.965 61.3008 131.155 61.3008H127.731C127.859 61.4075 127.976 61.5035 128.083 61.5888C129.469 62.8475 130.163 64.3621 130.163 66.1328C130.163 67.8821 129.469 69.3968 128.083 70.6768C127.187 71.4875 126.163 72.0421 125.011 72.3408V76.0848ZM138.771 80.3408C138.771 81.3648 138.131 81.8768 136.851 81.8768C135.592 81.8768 134.963 81.3648 134.963 80.3408V56.2128C134.963 55.1888 135.592 54.6768 136.851 54.6768C138.131 54.6768 138.771 55.1888 138.771 56.2128V80.3408ZM126.419 65.9728C126.419 65.0341 126.077 64.2448 125.395 63.6048C124.733 62.9435 123.933 62.6128 122.995 62.6128C122.035 62.6128 121.224 62.9435 120.563 63.6048C119.901 64.2448 119.571 65.0341 119.571 65.9728C119.571 66.9115 119.901 67.7115 120.563 68.3728C121.224 69.0128 122.035 69.3328 122.995 69.3328C123.933 69.3328 124.733 69.0128 125.395 68.3728C126.077 67.7115 126.419 66.9115 126.419 65.9728ZM170.127 56.7405C169.532 58.132 167.891 59.4266 164.868 59.886C164.495 59.9426 164.109 59.9847 163.711 60.0117L161.913 45.0225C164.962 46.6248 167.316 48.6917 168.769 50.7643C170.526 53.2684 170.722 55.3489 170.127 56.7405Z" fill="black"/>
</svg>
