<svg width="174" height="69" viewBox="0 0 174 69" fill="none" xmlns="http://www.w3.org/2000/svg">
<path fill-rule="evenodd" clip-rule="evenodd" d="M37.832 4.9079C37.8726 4.88894 37.9114 4.8676 37.9482 4.84412H160H162V6.84412V42.6736L161.448 42.9315C161.439 42.9356 161.431 42.9396 161.423 42.9435L155.984 45.4822L153.416 51.5821C153.243 51.9911 152.831 52.2257 152.411 52.1909L147.085 53.1979L141.778 62.1559L141.636 62.3953L141.627 62.4101L141.625 62.4135L141.253 63.0408L136.986 64.1559H14H12V62.1559V26.3686L16.7572 25.1255C16.934 25.0793 17.0873 24.9885 17.2083 24.8685L17.2133 24.8672L17.2189 24.8579C17.3313 24.7429 17.4146 24.6021 17.4614 24.4484L22.6812 15.6384L22.6889 15.6254L22.6964 15.6133C22.7696 15.4961 22.8633 15.3992 22.9701 15.3244C23.0769 15.2494 23.2001 15.1942 23.3353 15.1654L23.3509 15.1622L23.364 15.1597L28.7211 14.1469L31.3302 7.94934C31.3338 7.94075 31.3375 7.93224 31.3413 7.92381C31.3911 7.90948 31.4405 7.89108 31.4889 7.86847L37.832 4.9079ZM160 6.84412V41.4004L154.788 43.8328C154.582 43.929 154.424 44.0865 154.326 44.2734C154.319 44.2864 154.313 44.2997 154.307 44.313L154.298 44.3312C154.296 44.3363 154.294 44.3415 154.292 44.3466L154.288 44.3549L151.797 50.2717L146.275 51.3157C146.265 51.3175 146.256 51.3194 146.246 51.3214C146.111 51.3502 145.988 51.4054 145.881 51.4804C145.774 51.5552 145.681 51.6521 145.607 51.7693C145.602 51.7776 145.597 51.7859 145.592 51.7944L140.124 61.0232L135.79 62.1559H14V27.774L18.1169 26.6982C18.3767 26.6303 18.5859 26.4662 18.7162 26.2541L18.725 26.2393L24.1743 17.0419L29.576 16.0207C29.9216 15.9553 30.1918 15.7195 30.316 15.4166C30.372 15.3463 30.4194 15.2673 30.456 15.1804L32.8834 9.41445L38.3904 6.84412H160ZM142.917 64.1559H150C156.627 64.1559 162 58.7833 162 52.1559V44.8808L160.551 45.557C160.496 45.5719 160.441 45.5918 160.387 45.6169L157.669 46.8857C157.627 46.9052 157.587 46.9273 157.549 46.9516C157.371 47.057 157.224 47.2185 157.137 47.4242L154.645 53.3448L149.122 54.3889L149.108 54.3917L149.094 54.3946C148.958 54.4234 148.835 54.4785 148.729 54.5535C148.622 54.6283 148.528 54.7253 148.455 54.8425L148.447 54.8549L148.44 54.8675L144.121 62.1559H144.102L142.917 64.1559ZM160 52.1559V48.0047L158.833 48.5492L156.263 54.6553C156.091 55.0643 155.678 55.2989 155.259 55.2641L149.933 56.2711L146.446 62.1559H150C155.523 62.1559 160 57.6787 160 52.1559ZM12 24.3014L13.6877 23.8604C13.736 23.8551 13.7844 23.8463 13.8328 23.8336L15.7639 23.329C15.7862 23.3232 15.8084 23.3167 15.8303 23.3095C15.9278 23.2772 16.0173 23.231 16.0972 23.1738C16.1987 23.1012 16.2882 23.0083 16.3592 22.8964L22.1162 13.8288L24.3622 13.4041L27.0643 12.8933C27.4551 12.8194 27.7494 12.5275 27.8453 12.1672L30.2416 6.47506C30.2616 6.42774 30.2776 6.37975 30.2898 6.33145C30.3822 6.21758 30.5012 6.12235 30.643 6.05616L33.2399 4.84412H24C17.3726 4.84412 12 10.2167 12 16.8441V24.3014ZM24 6.84412H27.9163L26.1541 11.0299L23.9906 11.4389L21.2885 11.9498C20.9306 12.0175 20.6536 12.268 20.5358 12.5865L14.8816 21.4924L14 21.7228V16.8441C14 11.3213 18.4772 6.84412 24 6.84412ZM44.6383 46.275C45.8383 46.275 46.4383 45.795 46.4383 44.835V33.585H48.2083C48.5083 33.585 48.7483 33.505 48.9283 33.345V44.835C48.9283 45.795 49.5183 46.275 50.6983 46.275C51.8983 46.275 52.4983 45.795 52.4983 44.835V22.215C52.4983 21.255 51.8983 20.775 50.6983 20.775C49.5183 20.775 48.9283 21.255 48.9283 22.215V30.795C48.7483 30.635 48.5083 30.555 48.2083 30.555H46.4383V22.215C46.4383 21.255 45.8383 20.775 44.6383 20.775C43.4583 20.775 42.8683 21.255 42.8683 22.215V44.835C42.8683 45.795 43.4583 46.275 44.6383 46.275ZM27.0883 42.585C27.5283 43.525 28.2983 43.765 29.3983 43.305C33.5583 41.585 36.4083 39.215 37.9483 36.195C39.5083 33.155 40.2883 30.775 40.2883 29.055V23.235C40.2883 22.775 40.1483 22.365 39.8683 22.005C39.6083 21.625 39.1183 21.435 38.3983 21.435H28.7083C27.9483 21.435 27.5683 21.945 27.5683 22.965C27.5883 23.965 27.9683 24.465 28.7083 24.465H36.4483C36.5883 24.465 36.6683 24.495 36.6883 24.555C36.7083 24.615 36.7183 24.685 36.7183 24.765V28.425C36.7183 31.245 35.7583 33.755 33.8383 35.955C31.9183 38.155 29.8583 39.725 27.6583 40.665C26.8583 41.005 26.6683 41.645 27.0883 42.585ZM80.8066 46.275C82.0066 46.275 82.6066 45.795 82.6066 44.835V22.215C82.6066 21.255 82.0066 20.775 80.8066 20.775C79.6266 20.775 79.0366 21.255 79.0366 22.215V44.835C79.0366 45.795 79.6266 46.275 80.8066 46.275ZM72.7066 42.015C73.9066 41.995 74.5066 41.505 74.5066 40.545V23.235C74.5066 22.775 74.3666 22.365 74.0866 22.005C73.8266 21.625 73.3366 21.435 72.6166 21.435H62.3866C61.6666 21.435 61.1666 21.625 60.8866 22.005C60.6266 22.365 60.4966 22.775 60.4966 23.235V40.215C60.4966 40.675 60.6266 41.095 60.8866 41.475C61.1666 41.835 61.6666 42.015 62.3866 42.015H69.1666C69.9066 42.015 70.2766 41.515 70.2766 40.515C70.2966 39.495 69.9266 38.985 69.1666 38.985H64.3366C64.1966 38.985 64.1166 38.955 64.0966 38.895C64.0766 38.835 64.0666 38.765 64.0666 38.685V24.765C64.0666 24.685 64.0766 24.615 64.0966 24.555C64.1166 24.495 64.1966 24.465 64.3366 24.465H70.6666C70.8066 24.465 70.8866 24.495 70.9066 24.555C70.9266 24.615 70.9366 24.685 70.9366 24.765V40.545C70.9366 41.525 71.5266 42.015 72.7066 42.015ZM114.939 46.515C116.319 45.295 117.009 43.825 117.009 42.105C117.009 40.385 116.319 38.915 114.939 37.695C113.559 36.455 111.879 35.835 109.899 35.835C107.899 35.835 106.199 36.445 104.799 37.665C103.419 38.885 102.729 40.365 102.729 42.105C102.729 43.845 103.419 45.325 104.799 46.545C106.199 47.765 107.899 48.375 109.899 48.375C111.879 48.375 113.559 47.755 114.939 46.515ZM104.589 35.595C105.709 35.215 106.109 34.565 105.789 33.645L102.099 22.335C101.779 21.415 101.059 21.155 99.9386 21.555C99.4386 21.735 99.0786 21.965 98.8586 22.245C98.6386 21.965 98.2786 21.735 97.7786 21.555C96.6586 21.155 95.9386 21.415 95.6186 22.335L90.5648 37.548C90.5667 37.5123 90.5647 37.4764 90.5589 37.4409C90.5466 37.3654 90.5168 37.292 90.4692 37.227C90.4634 37.2191 90.4574 37.2113 90.4511 37.2038C90.4457 37.1971 90.44 37.1906 90.4342 37.1842L88.9747 35.5297C89.3722 34.9917 89.7128 34.3428 89.9573 33.6155C90.2339 32.793 90.3519 31.9761 90.3282 31.2365L91.2251 32.2533L90.8969 33.2297C90.8089 33.4914 90.9497 33.7749 91.2114 33.8629C91.4732 33.9509 91.7567 33.8101 91.8447 33.5483L92.2611 32.3098C92.29 32.2301 92.2981 32.1442 92.285 32.0608C92.2728 31.9833 92.2423 31.908 92.193 31.8415C92.1827 31.8276 92.1717 31.8142 92.16 31.8014L89.6985 29.011C89.8677 28.7929 90.0044 28.542 90.0979 28.2638C90.2202 27.8999 90.2556 27.5286 90.2154 27.1739L90.7413 27.0135C90.7818 27.0089 90.8233 26.9984 90.865 26.9815C90.9446 26.9492 91.0155 26.8976 91.0739 26.8336C91.1986 26.7046 91.2705 26.5217 91.2505 26.3443C91.2456 26.3006 91.2354 26.2599 91.2206 26.2226L91.0409 25.2703L94.6977 24.1551C94.885 24.1342 95.0524 24.0078 95.1164 23.8174L95.501 22.6735C95.589 22.4117 95.4481 22.1282 95.1864 22.0402C94.9246 21.9522 94.6411 22.093 94.5531 22.3548L94.2472 23.2647L90.5083 24.4048C90.4679 24.4095 90.4264 24.42 90.3848 24.4369C90.3056 24.469 90.235 24.5202 90.1768 24.5838C90.0515 24.7128 89.9792 24.8962 89.9992 25.074C90.0042 25.1178 90.0144 25.1586 90.0292 25.1959L90.2089 26.148L89.9113 26.2388C89.6393 25.7619 89.2053 25.3833 88.6542 25.198C88.566 25.1684 88.4772 25.1445 88.3882 25.1261C88.4642 24.9839 88.5295 24.8335 88.5826 24.6756C88.8858 23.7738 88.7242 22.8278 88.227 22.0977C88.4467 21.6133 88.4574 21.0275 88.1469 20.4791C87.6627 19.6238 86.5819 19.315 85.719 19.7854C85.2102 20.0627 84.9139 20.5135 84.8163 20.9972C84.6177 21.0694 84.4273 21.1629 84.2488 21.2759C84.2439 21.2699 84.2389 21.2639 84.2337 21.258L83.5334 20.4641L84.6166 17.2423C84.7046 16.9806 84.5637 16.6971 84.302 16.6091C84.0402 16.5211 83.7567 16.6619 83.6687 16.9237L82.4966 20.41C82.49 20.4284 82.4845 20.4472 82.4801 20.4662C82.4637 20.5374 82.4634 20.6092 82.4773 20.6774C82.491 20.7456 82.5191 20.8117 82.5619 20.8709C82.5733 20.8867 82.5856 20.9019 82.5988 20.9164L83.4838 21.9195C83.4918 21.9287 83.5001 21.9374 83.5087 21.9458C83.3106 22.1996 83.1514 22.4907 83.043 22.8131C82.5287 24.3428 83.3519 25.9999 84.8816 26.5142C85.1492 26.6041 85.4206 26.6532 85.6892 26.6647C85.676 26.699 85.6635 26.7337 85.6517 26.7689C85.3577 27.6433 85.5659 28.5606 86.1184 29.1859C85.5394 29.7412 85.0258 30.5122 84.6649 31.4267C84.6076 31.4832 84.5645 31.553 84.5397 31.6299C84.516 31.6984 84.5075 31.7712 84.5146 31.843C83.7272 34.2417 84.2858 36.5791 85.7733 37.0793C86.5833 37.3516 87.503 37.0234 88.3053 36.2825L89.4995 37.6363L89.1712 38.6127C89.0832 38.8744 89.2241 39.158 89.4858 39.246C89.7108 39.3216 89.9519 39.2281 90.0711 39.0341L89.7386 40.035C89.4186 40.955 89.8186 41.605 90.9386 41.985C92.0586 42.365 92.7786 42.095 93.0986 41.175L98.8586 23.865L102.429 34.785C102.749 35.705 103.469 35.975 104.589 35.595ZM86.9502 29.7804C86.5837 30.097 86.2257 30.5412 85.9249 31.0893L86.9823 30.8758C87.253 30.8211 87.5167 30.9962 87.5714 31.2669C87.6261 31.5376 87.4509 31.8013 87.1803 31.856L85.9526 32.1039L88.295 34.7592C88.5741 34.3464 88.8221 33.8542 89.0095 33.2968C89.366 32.2363 89.4052 31.2311 89.2295 30.4828C89.1476 30.1338 89.0299 29.8731 88.8975 29.6832C88.3538 29.9683 87.7099 30.0414 87.0953 29.8347C87.046 29.8182 86.9976 29.8 86.9502 29.7804ZM110.439 35.385C111.639 35.385 112.239 34.905 112.239 33.945V22.215C112.239 21.255 111.639 20.775 110.439 20.775C109.259 20.775 108.669 21.255 108.669 22.215V33.945C108.669 34.905 109.259 35.385 110.439 35.385ZM112.389 39.825C113.089 40.445 113.439 41.205 113.439 42.105C113.439 43.005 113.089 43.765 112.389 44.385C111.709 45.005 110.879 45.315 109.899 45.315C108.919 45.315 108.079 45.005 107.379 44.385C106.699 43.765 106.359 43.005 106.359 42.105C106.359 41.205 106.699 40.445 107.379 39.825C108.079 39.205 108.919 38.895 109.899 38.895C110.879 38.895 111.709 39.205 112.389 39.825ZM117.159 29.175C117.619 28.715 117.849 28.165 117.849 27.525C117.849 26.885 117.619 26.345 117.159 25.905C116.719 25.445 116.179 25.215 115.539 25.215C114.899 25.215 114.349 25.445 113.889 25.905C113.449 26.345 113.229 26.885 113.229 27.525C113.229 28.165 113.449 28.715 113.889 29.175C114.349 29.615 114.899 29.835 115.539 29.835C116.179 29.835 116.719 29.615 117.159 29.175ZM133.809 42.105C134.089 41.725 134.229 41.305 134.229 40.845V37.335C135.309 37.055 136.269 36.535 137.109 35.775C138.409 34.575 139.059 33.155 139.059 31.515C139.059 29.855 138.409 28.435 137.109 27.255C137.009 27.175 136.899 27.085 136.779 26.985H139.989C140.749 26.985 141.129 26.485 141.129 25.485C141.149 24.465 140.769 23.955 139.989 23.955H134.229V22.065C134.229 21.105 133.629 20.625 132.429 20.625C131.249 20.625 130.659 21.105 130.659 22.065V23.955H124.629C123.869 23.955 123.489 24.465 123.489 25.485C123.509 26.485 123.889 26.985 124.629 26.985H127.839C127.719 27.085 127.609 27.175 127.509 27.255C126.209 28.435 125.559 29.855 125.559 31.515C125.559 33.155 126.209 34.575 127.509 35.775C128.409 36.595 129.459 37.135 130.659 37.395V39.315C130.659 39.395 130.649 39.465 130.629 39.525C130.609 39.585 130.529 39.615 130.389 39.615H123.759C123.019 39.615 122.639 40.125 122.619 41.145C122.619 42.145 122.999 42.645 123.759 42.645H132.339C133.059 42.645 133.549 42.465 133.809 42.105ZM145.329 46.275C146.529 46.275 147.129 45.795 147.129 44.835V22.215C147.129 21.255 146.529 20.775 145.329 20.775C144.149 20.775 143.559 21.255 143.559 22.215V44.835C143.559 45.795 144.149 46.275 145.329 46.275ZM134.589 29.145C135.229 29.745 135.549 30.485 135.549 31.365C135.549 32.245 135.229 32.995 134.589 33.615C133.969 34.215 133.219 34.515 132.339 34.515C131.439 34.515 130.679 34.215 130.059 33.615C129.439 32.995 129.129 32.245 129.129 31.365C129.129 30.485 129.439 29.745 130.059 29.145C130.679 28.525 131.439 28.215 132.339 28.215C133.219 28.215 133.969 28.525 134.589 29.145ZM86.5995 27.0876C86.7047 26.7749 86.8926 26.5277 87.1225 26.3566C87.2222 26.3066 87.3191 26.2509 87.4126 26.1899C87.7067 26.0647 88.0348 26.0448 88.3356 26.1459C89.0028 26.3702 89.4172 27.1503 89.15 27.9451C88.8828 28.7399 88.0812 29.1112 87.414 28.8869C86.7468 28.6626 86.3323 27.8824 86.5995 27.0876ZM85.7966 21.1949L85.6857 21.7453L85.1579 21.9371C84.6244 22.131 84.1848 22.5551 83.9909 23.1318C83.6526 24.138 84.194 25.228 85.2002 25.5663C86.2065 25.9046 87.2964 25.3631 87.6347 24.3569C87.834 23.7643 87.7291 23.1431 87.4005 22.6606L87.0844 22.1963L87.3163 21.6848C87.4123 21.4731 87.4201 21.2252 87.2766 20.9717C87.0614 20.5916 86.5811 20.4544 86.1976 20.6634C85.9618 20.7919 85.8388 20.9855 85.7966 21.1949ZM85.7934 23.802C86.0863 23.9005 86.4019 23.7478 86.4983 23.461C86.5947 23.1742 86.4355 22.8618 86.1426 22.7634C85.8497 22.6649 85.5341 22.8176 85.4377 23.1044C85.3412 23.3912 85.5005 23.7036 85.7934 23.802ZM87.6435 35.5324L85.2784 32.8512C85.1165 33.6321 85.1254 34.3529 85.2595 34.9241C85.4393 35.6898 85.7914 36.0303 86.092 36.1314C86.3926 36.2325 86.8789 36.1738 87.4848 35.6722C87.5379 35.6283 87.5908 35.5816 87.6435 35.5324Z" fill="black"/>
</svg>
