<svg width="174" height="69" viewBox="0 0 174 69" fill="none" xmlns="http://www.w3.org/2000/svg">
<path fill-rule="evenodd" clip-rule="evenodd" d="M37.832 4.9079C37.8726 4.88894 37.9114 4.8676 37.9482 4.84412H160H162V6.84412V42.6736L161.448 42.9315C161.439 42.9356 161.431 42.9396 161.423 42.9435L155.984 45.4822L153.416 51.5821C153.243 51.9911 152.831 52.2257 152.411 52.191L147.085 53.1979L141.778 62.1559L141.636 62.3953L141.627 62.4101L141.625 62.4135L141.253 63.0408L136.986 64.1559H14H12V62.1559V26.3686L16.7572 25.1255C16.934 25.0793 17.0873 24.9886 17.2083 24.8685L17.2133 24.8672L17.2189 24.8579C17.3313 24.7429 17.4146 24.6021 17.4614 24.4484L22.6812 15.6384C22.6862 15.6299 22.6912 15.6216 22.6964 15.6133C22.7696 15.4961 22.8633 15.3992 22.9701 15.3244C23.0769 15.2494 23.2001 15.1942 23.3353 15.1654C23.3449 15.1634 23.3544 15.1615 23.364 15.1597L28.7211 14.1469L31.3302 7.94934C31.3338 7.94075 31.3375 7.93224 31.3413 7.92381C31.3911 7.90948 31.4405 7.89108 31.4889 7.86847L37.832 4.9079ZM160 6.84412V41.4004L154.788 43.8328C154.582 43.929 154.424 44.0865 154.326 44.2734C154.312 44.3 154.3 44.3272 154.288 44.3549L151.797 50.2717L146.275 51.3157C146.265 51.3175 146.256 51.3194 146.246 51.3214C146.111 51.3502 145.988 51.4054 145.881 51.4804C145.774 51.5552 145.681 51.6521 145.607 51.7693C145.602 51.7776 145.597 51.7859 145.592 51.7944L140.124 61.0232L135.79 62.1559H14V27.774L18.1169 26.6982C18.3767 26.6303 18.5859 26.4662 18.7162 26.2541L18.725 26.2393L24.1743 17.0419L29.576 16.0207C29.9216 15.9553 30.1918 15.7195 30.316 15.4166C30.372 15.3463 30.4194 15.2673 30.456 15.1804L32.8834 9.41445L38.3904 6.84412H160ZM142.917 64.1559H150C156.627 64.1559 162 58.7833 162 52.1559V44.8808L160.551 45.557C160.496 45.5719 160.441 45.5918 160.387 45.6169L157.669 46.8857C157.627 46.9052 157.587 46.9273 157.549 46.9516C157.371 47.057 157.224 47.2185 157.137 47.4242L154.645 53.3448L149.122 54.3889C149.113 54.3906 149.103 54.3925 149.094 54.3946C148.958 54.4234 148.835 54.4785 148.729 54.5535C148.622 54.6283 148.528 54.7252 148.455 54.8424C148.45 54.8507 148.444 54.8591 148.44 54.8675L144.121 62.1559H144.102L142.917 64.1559ZM160 52.1559V48.0047L158.833 48.5492L156.263 54.6553C156.091 55.0643 155.678 55.2989 155.259 55.2641L149.933 56.2711L146.446 62.1559H150C155.523 62.1559 160 57.6787 160 52.1559ZM12 24.3014L13.6877 23.8604C13.736 23.8551 13.7844 23.8463 13.8328 23.8336L15.7639 23.329C15.7862 23.3232 15.8084 23.3167 15.8303 23.3095C15.9278 23.2772 16.0173 23.231 16.0972 23.1738C16.1987 23.1012 16.2882 23.0083 16.3592 22.8964L22.1162 13.8288L24.3622 13.4041L27.0643 12.8933C27.4551 12.8194 27.7494 12.5275 27.8453 12.1672L30.2416 6.47506C30.2616 6.42774 30.2776 6.37975 30.2898 6.33145C30.3822 6.21758 30.5012 6.12235 30.643 6.05616L33.2399 4.84412H24C17.3726 4.84412 12 10.2167 12 16.8441V24.3014ZM24 6.84412H27.9163L26.1541 11.0299L23.9906 11.4389L21.2885 11.9498C20.9306 12.0175 20.6536 12.268 20.5358 12.5865L14.8816 21.4924L14 21.7228V16.8441C14 11.3213 18.4772 6.84412 24 6.84412ZM48.6141 47.142C48.7208 47.6753 48.9555 47.942 49.3181 47.942C49.7235 47.942 50.0541 47.7607 50.3101 47.398C50.5661 47.0567 50.7581 46.6193 50.8861 46.086C51.0355 45.5527 51.1315 45.0087 51.1741 44.454C51.2381 43.8993 51.2701 43.4193 51.2701 43.014L51.3021 23.846C51.3021 23.3553 51.3341 22.8647 51.3981 22.374C51.4621 21.8833 51.5155 21.4993 51.5581 21.222C51.5581 20.966 51.3661 20.71 50.9821 20.454C50.7688 20.3047 50.4701 20.134 50.0861 19.942C49.7021 19.7287 49.3181 19.5473 48.9341 19.398C48.5501 19.2273 48.2301 19.142 47.9741 19.142C47.6328 19.142 47.3235 19.2807 47.0461 19.558C46.7901 19.8353 46.6621 20.0807 46.6621 20.294C46.6621 20.4433 46.7155 20.582 46.8221 20.71C46.9288 20.8167 47.0568 20.9233 47.2061 21.03C47.5688 21.286 47.8248 21.5207 47.9741 21.734C48.1448 21.926 48.2515 22.1713 48.2941 22.47C48.3581 22.7687 48.3901 23.2167 48.3901 23.814V31.078L45.6061 31.174V24.998C45.6061 24.5073 45.6168 24.0273 45.6381 23.558C45.6808 23.0887 45.7341 22.7153 45.7981 22.438C45.7981 22.2033 45.5848 21.926 45.1581 21.606C44.9661 21.4567 44.6995 21.286 44.3581 21.094C44.0168 20.902 43.6648 20.7313 43.3021 20.582C42.9608 20.4327 42.6728 20.358 42.4381 20.358C42.1181 20.358 41.8195 20.4967 41.5421 20.774C41.2861 21.0513 41.1581 21.2967 41.1581 21.51C41.1581 21.638 41.2221 21.7553 41.3501 21.862C41.4781 21.9687 41.6168 22.086 41.7661 22.214C42.1928 22.5767 42.4701 22.9287 42.5981 23.27C42.7261 23.59 42.7901 24.166 42.7901 24.998V42.31V43.366C42.8115 43.814 42.8328 44.2833 42.8541 44.774C42.8968 45.2433 42.9395 45.6593 42.9821 46.022C43.0461 46.5553 43.2808 46.822 43.6861 46.822C44.0701 46.822 44.3795 46.662 44.6141 46.342C44.8701 46.0007 45.0621 45.5847 45.1901 45.094C45.3395 44.582 45.4461 44.07 45.5101 43.558C45.5741 43.0247 45.6061 42.5553 45.6061 42.15V33.414L48.3901 33.382V43.174V44.294C48.4115 44.7633 48.4328 45.2647 48.4541 45.798C48.4968 46.31 48.5501 46.758 48.6141 47.142ZM28.4861 41.734C28.9768 41.734 29.4355 41.5953 29.8621 41.318C30.9928 40.5927 32.0701 39.7073 33.0941 38.662C34.1395 37.5953 35.0995 36.454 35.9741 35.238C36.8488 34.022 37.6061 32.7953 38.2461 31.558C38.9075 30.3207 39.4301 29.1687 39.8141 28.102C39.9208 27.846 40.0381 27.526 40.1661 27.142C40.3155 26.7367 40.4541 26.3527 40.5821 25.99C40.7315 25.606 40.8275 25.318 40.8701 25.126C41.0408 24.6993 40.9448 24.422 40.5821 24.294C40.3048 24.1873 39.9315 24.07 39.4621 23.942C38.9928 23.814 38.5875 23.6967 38.2461 23.59H38.2141C38.1075 23.5473 38.0008 23.526 37.8941 23.526C37.7875 23.5047 37.6595 23.526 37.5101 23.59C37.0195 23.7607 36.4008 23.8993 35.6541 24.006C34.9075 24.0913 34.1181 24.1447 33.2861 24.166C32.4755 24.1873 31.6968 24.1767 30.9501 24.134C30.2248 24.0913 29.6275 24.0167 29.1581 23.91C28.9875 23.91 28.7955 24.0487 28.5821 24.326C28.3688 24.582 28.2835 24.806 28.3261 24.998C28.4328 25.19 28.6355 25.446 28.9341 25.766C29.2541 26.0647 29.4888 26.278 29.6381 26.406C29.8728 26.6193 30.0541 26.7367 30.1821 26.758C30.3315 26.758 30.5875 26.7153 30.9501 26.63H31.0141C31.9528 26.4167 32.9555 26.2567 34.0221 26.15C35.0888 26.0433 36.0168 25.99 36.8061 25.99C37.0195 25.99 37.0941 26.118 37.0301 26.374C36.8168 27.526 36.4221 28.742 35.8461 30.022C35.2701 31.302 34.5661 32.5713 33.7341 33.83C32.9021 35.0673 32.0061 36.23 31.0461 37.318C30.0861 38.406 29.1261 39.334 28.1661 40.102C27.9528 40.2513 27.7928 40.422 27.6861 40.614C27.5795 40.806 27.5475 40.998 27.5901 41.19C27.6968 41.5313 27.9955 41.7127 28.4861 41.734ZM61.7869 38.63C61.9576 38.8647 62.1816 38.982 62.4589 38.982C62.7576 38.982 63.0349 38.8647 63.2909 38.63C63.5682 38.3953 63.7922 38.118 63.9629 37.798C64.6029 37.7553 65.3709 37.7233 66.2669 37.702C67.1629 37.6593 68.0909 37.638 69.0509 37.638C70.0322 37.6167 70.9496 37.606 71.8029 37.606C72.6562 37.606 73.3496 37.6273 73.8829 37.67C74.1389 37.6273 74.3736 37.4673 74.5869 37.19C74.8216 36.9127 74.9389 36.6353 74.9389 36.358C74.9389 36.294 74.8002 36.134 74.5229 35.878C74.2456 35.622 73.9896 35.43 73.7549 35.302C73.8616 34.1927 74.0002 33.03 74.1709 31.814C74.3629 30.598 74.5336 29.4887 74.6829 28.486C74.7256 28.2727 74.7789 27.942 74.8429 27.494L75.0989 26.15C75.2056 25.702 75.2802 25.382 75.3229 25.19C75.4296 24.8273 75.3229 24.5713 75.0029 24.422L72.6669 23.686C72.4749 23.622 72.3256 23.6007 72.2189 23.622C72.1122 23.622 71.9736 23.654 71.8029 23.718C71.3976 23.8673 70.9176 23.9847 70.3629 24.07C69.8296 24.1553 69.1576 24.2193 68.3469 24.262H68.2189C67.9842 24.2833 67.6216 24.3047 67.1309 24.326C66.6616 24.3473 66.1282 24.3793 65.5309 24.422C64.9549 24.4433 64.4002 24.4647 63.8669 24.486H62.6829C62.3416 24.3793 61.9896 24.2727 61.6269 24.166C61.2642 24.0593 60.9336 23.974 60.6349 23.91C60.2936 23.8673 60.0056 23.9313 59.7709 24.102C59.5576 24.2513 59.3976 24.4753 59.2909 24.774C59.2056 24.9873 59.2056 25.1687 59.2909 25.318C59.3762 25.4673 59.5256 25.606 59.7389 25.734C60.1656 25.9473 60.4536 26.2247 60.6029 26.566C60.7522 26.9073 60.8482 27.398 60.8909 28.038L61.5309 37.734C61.5522 38.0753 61.6376 38.374 61.7869 38.63ZM79.3869 47.142C79.4936 47.6753 79.7282 47.942 80.0909 47.942C80.4749 47.942 80.7949 47.7607 81.0509 47.398C81.3282 47.0567 81.5416 46.6193 81.6909 46.086C81.8616 45.5527 81.9789 45.0087 82.0429 44.454C82.1069 43.8993 82.1389 43.4193 82.1389 43.014L82.1709 24.262C82.1709 23.686 82.2029 23.0887 82.2669 22.47C82.3522 21.83 82.4056 21.3713 82.4269 21.094C82.4269 20.838 82.2242 20.582 81.8189 20.326C81.5202 20.134 81.1576 19.9527 80.7309 19.782C80.3042 19.59 79.8882 19.4407 79.4829 19.334C79.0776 19.206 78.7576 19.142 78.5229 19.142C78.1816 19.142 77.8936 19.2913 77.6589 19.59C77.4242 19.8887 77.3069 20.1553 77.3069 20.39C77.3069 20.5393 77.3602 20.6673 77.4669 20.774C77.5736 20.8807 77.6909 20.9767 77.8189 21.062C78.5016 21.4673 78.8962 21.8833 79.0029 22.31C79.1309 22.7367 79.1949 23.3233 79.1949 24.07V24.262V43.174V44.326C79.1949 44.8167 79.2056 45.318 79.2269 45.83C79.2696 46.342 79.3229 46.7793 79.3869 47.142ZM66.4909 35.686C65.6589 35.7073 64.9016 35.718 64.2189 35.718L64.0589 26.406C64.6349 26.3847 65.2749 26.3633 65.9789 26.342C66.7042 26.3207 67.4189 26.2993 68.1229 26.278C68.8269 26.2567 69.4349 26.246 69.9469 26.246C70.4802 26.2247 70.8429 26.214 71.0349 26.214C71.1629 26.214 71.2589 26.246 71.3229 26.31C71.4082 26.3527 71.4509 26.47 71.4509 26.662C71.4509 26.8113 71.4402 27.1633 71.4189 27.718C71.4189 28.2513 71.4082 28.8913 71.3869 29.638C71.3869 30.3633 71.3762 31.11 71.3549 31.878C71.3549 32.646 71.3442 33.3607 71.3229 34.022C71.3229 34.662 71.3122 35.1527 71.2909 35.494C70.6296 35.5367 69.8722 35.5793 69.0189 35.622C68.1869 35.6433 67.3442 35.6647 66.4909 35.686ZM101.503 49.126C102.569 49.6167 103.807 49.862 105.215 49.862C106.559 49.862 107.785 49.606 108.895 49.094C110.004 48.6033 110.879 47.9207 111.519 47.046C112.18 46.1713 112.511 45.158 112.511 44.006C112.511 42.7687 112.191 41.734 111.551 40.902C110.911 40.0487 110.047 39.4087 108.959 38.982C107.871 38.534 106.665 38.31 105.343 38.31C104.02 38.31 102.804 38.566 101.695 39.078C100.607 39.59 99.732 40.2833 99.0706 41.158C98.4306 42.0327 98.1106 43.0247 98.1106 44.134C98.1106 45.2433 98.4093 46.2247 99.0066 47.078C99.604 47.9527 100.436 48.6353 101.503 49.126ZM89.7586 36.87C90.1853 36.934 90.5693 36.87 90.9106 36.678C92.2973 35.9313 93.6306 34.886 94.9106 33.542C96.1906 32.1767 97.3533 30.758 98.3986 29.286C98.8253 29.6487 99.3266 30.086 99.9026 30.598C100.479 31.11 101.076 31.6647 101.695 32.262C102.313 32.838 102.889 33.4033 103.423 33.958C103.977 34.5127 104.436 35.014 104.799 35.462C105.076 35.526 105.417 35.462 105.823 35.27C106.249 35.0567 106.505 34.758 106.591 34.374C106.591 34.0113 106.505 33.606 106.335 33.158C106.164 32.6887 105.972 32.2727 105.759 31.91C105.545 31.526 105.343 31.2913 105.151 31.206C104.511 31.014 103.689 30.6407 102.687 30.086C101.684 29.5313 100.564 28.7847 99.3266 27.846L99.9026 26.886C100.116 26.5447 100.308 26.214 100.479 25.894C100.713 25.4673 100.927 25.0727 101.119 24.71C101.332 24.326 101.545 23.9633 101.759 23.622C101.801 23.3873 101.684 23.142 101.407 22.886C101.151 22.6087 100.777 22.3207 100.287 22.022C99.8173 21.702 99.38 21.4567 98.9746 21.286C98.6546 21.1153 98.3026 21.0407 97.9186 21.062C97.556 21.0833 97.2466 21.3607 96.9906 21.894C96.884 22.1073 96.8626 22.2887 96.9266 22.438C97.012 22.566 97.1293 22.694 97.2786 22.822C97.6413 23.142 97.8013 23.4727 97.7586 23.814C97.7424 24.0574 97.6892 24.3192 97.5989 24.5996C97.5836 24.4634 97.5127 24.334 97.3923 24.2481C97.1675 24.0878 96.8552 24.1401 96.6949 24.365L96.3262 24.8821L93.5893 24.8846C93.5493 24.8773 93.5066 24.8753 93.4618 24.8793C93.3767 24.887 93.2943 24.9155 93.2202 24.9594C93.0628 25.0464 92.9402 25.2009 92.9077 25.3768C92.8997 25.4201 92.8976 25.4621 92.9009 25.5021L92.8423 26.04L92.7002 26.0402C92.7122 26.0817 92.7228 26.1237 92.7317 26.166C92.6419 25.7773 92.4195 25.4229 92.0754 25.1775C92.02 25.138 91.963 25.1024 91.9046 25.0707C91.9881 24.9874 92.0657 24.8961 92.1364 24.7969C92.5401 24.2308 92.6282 23.535 92.4357 22.9188C92.6923 22.6267 92.8242 22.2194 92.7237 21.7699C92.5669 21.069 91.8768 20.6234 91.1734 20.7689C90.7587 20.8547 90.4557 21.1068 90.2847 21.4244C90.1756 21.4302 90.0672 21.4444 89.9604 21.4667C89.9556 21.4534 89.9502 21.4401 89.9443 21.427L89.6555 20.7937L91.0526 18.8344C91.2129 18.6096 91.1606 18.2973 90.9358 18.137C90.7109 17.9767 90.3987 18.029 90.2384 18.2538L88.6793 20.4404C88.6674 20.4564 88.6565 20.4731 88.6467 20.4904C88.6106 20.5535 88.5896 20.6218 88.583 20.6907C88.5764 20.7596 88.5839 20.8306 88.6074 20.8994C88.6138 20.9182 88.6213 20.9366 88.6299 20.9547L89.0344 21.8419C89.0422 21.859 89.0509 21.8755 89.0603 21.8913C88.911 22.0113 88.7754 22.1536 88.6587 22.3172C87.974 23.2776 88.1974 24.6112 89.1577 25.2959C89.3257 25.4157 89.5051 25.5077 89.6905 25.5728C89.674 25.5941 89.6578 25.6157 89.642 25.6378C89.2507 26.1867 89.2012 26.8723 89.4546 27.427C88.9877 27.6639 88.5206 28.0322 88.1079 28.5091C87.9493 28.5165 87.8073 28.5988 87.7204 28.7242C87.6372 28.8406 87.6059 28.9901 87.6411 29.1338C86.7011 30.5981 86.6408 32.2349 87.5358 32.8731C88.0155 33.2151 88.6768 33.2042 89.3533 32.9103L89.8683 34.0397L89.4763 34.5894C89.316 34.8142 89.3683 35.1265 89.5931 35.2868C89.6075 35.297 89.6222 35.3064 89.6372 35.3149C89.5707 35.365 89.5045 35.4141 89.4386 35.462C89.2253 35.6113 89.0973 35.7607 89.0546 35.91C89.012 36.038 89.0013 36.1767 89.0226 36.326C89.0866 36.6033 89.332 36.7847 89.7586 36.87ZM90.9224 34.237C91.1606 34.0183 91.402 33.7867 91.6466 33.542C92.436 32.7527 93.204 31.8887 93.9506 30.95C94.7186 29.99 95.412 29.0087 96.0306 28.006C96.6487 26.983 97.1283 25.9814 97.4696 25.001L96.9971 25.6637C96.8805 25.8271 96.6837 25.8994 96.4986 25.8651L93.8473 25.8676L93.7886 26.4056C93.7919 26.4455 93.7898 26.4875 93.7818 26.5308C93.7494 26.706 93.6278 26.8598 93.4714 26.947C93.3967 26.9916 93.3135 27.0206 93.2277 27.0283C93.1828 27.0324 93.1399 27.0304 93.0998 27.023L92.7176 27.0233C92.6623 27.2338 92.5681 27.4391 92.4333 27.6281C92.3883 27.6912 92.3402 27.7505 92.2893 27.8062C92.26 27.9011 92.2091 27.9897 92.1408 28.0606L93.2449 30.4821C93.2525 30.498 93.2592 30.5144 93.2651 30.531C93.2912 30.6046 93.299 30.6809 93.2905 30.7546C93.2833 30.8179 93.2639 30.8805 93.2318 30.9388C93.2208 30.9588 93.2084 30.9781 93.1947 30.9965L92.6412 31.7728C92.4809 31.9976 92.1687 32.0499 91.9438 31.8896C91.719 31.7293 91.6667 31.417 91.827 31.1922L92.219 30.6425L91.9044 29.9526C91.7561 30.414 91.5198 30.8885 91.1977 31.3403C90.9025 31.7542 90.5659 32.1063 90.2132 32.3858L90.8941 33.8792C90.9016 33.8949 90.9082 33.9109 90.914 33.9272C90.9415 34.0041 90.949 34.084 90.9387 34.1608C90.9352 34.1866 90.9298 34.2121 90.9224 34.237ZM91.0171 28.3955C90.7307 28.4039 90.443 28.3408 90.1816 28.2011C90.1433 28.2145 90.1033 28.2298 90.0615 28.2473C89.8581 28.3324 89.6403 28.4604 89.4219 28.6303L89.7126 28.6582C89.9874 28.6847 90.1889 28.9289 90.1624 29.2038C90.136 29.4787 89.8918 29.6801 89.6169 29.6537L88.9378 29.5884L89.7822 31.4406C89.9903 31.2515 90.1948 31.0243 90.3834 30.7597C90.8338 30.1281 91.0535 29.4808 91.086 28.9777C91.1036 28.7049 91.0676 28.5192 91.0171 28.3955ZM109.823 37.67C109.908 38.118 110.153 38.342 110.559 38.342C111.071 38.3207 111.476 38.0967 111.775 37.67C112.073 37.222 112.276 36.6993 112.383 36.102C112.511 35.4833 112.575 34.9073 112.575 34.374V30.79C113.3 30.79 114.036 30.8113 114.783 30.854C115.551 30.8753 116.265 30.9393 116.927 31.046C117.076 31.046 117.279 30.9393 117.535 30.726C117.812 30.5127 117.951 30.2993 117.951 30.086C117.951 29.9367 117.865 29.67 117.695 29.286C117.524 28.902 117.353 28.6033 117.183 28.39C117.097 28.262 116.98 28.1767 116.831 28.134C116.681 28.07 116.489 28.0807 116.255 28.166C115.977 28.2513 115.497 28.39 114.815 28.582C114.153 28.7527 113.407 28.8807 112.575 28.966V23.814C112.575 23.3233 112.607 22.8327 112.671 22.342C112.735 21.8513 112.788 21.4673 112.831 21.19C112.831 20.9127 112.639 20.646 112.255 20.39C111.913 20.1553 111.487 19.9207 110.975 19.686C110.463 19.43 109.961 19.2593 109.471 19.174C109.129 19.11 108.82 19.1313 108.543 19.238C108.265 19.3447 108.041 19.5793 107.871 19.942C107.764 20.1553 107.753 20.3473 107.839 20.518C107.945 20.6887 108.105 20.838 108.319 20.966C108.724 21.2433 109.012 21.478 109.183 21.67C109.375 21.862 109.492 22.118 109.535 22.438C109.577 22.7367 109.599 23.1847 109.599 23.782V34.534C109.599 34.8753 109.609 35.3447 109.631 35.942C109.673 36.5393 109.737 37.1153 109.823 37.67ZM108.095 46.63C107.327 47.27 106.377 47.59 105.247 47.59C104.116 47.59 103.167 47.2807 102.399 46.662C101.652 46.022 101.279 45.1473 101.279 44.038C101.279 42.9713 101.663 42.086 102.431 41.382C103.199 40.678 104.148 40.326 105.279 40.326C106.409 40.326 107.369 40.646 108.159 41.286C108.969 41.9047 109.353 42.7793 109.311 43.91C109.268 45.0833 108.863 45.99 108.095 46.63ZM125.052 42.95C125.223 42.95 125.415 42.9393 125.628 42.918C125.991 42.8327 126.449 42.7473 127.004 42.662C127.58 42.5553 128.188 42.4487 128.828 42.342C129.489 42.2353 130.097 42.15 130.652 42.086C131.399 41.9793 132.252 41.862 133.212 41.734C134.193 41.5847 135.196 41.4247 136.22 41.254C137.265 41.0833 138.225 40.9127 139.1 40.742C139.996 40.5713 140.711 40.4113 141.244 40.262C141.671 40.1553 141.969 39.974 142.14 39.718C142.332 39.4407 142.428 39.1313 142.428 38.79C142.428 38.6193 142.343 38.4593 142.172 38.31C142.001 38.1607 141.745 38.1393 141.404 38.246C140.551 38.502 139.495 38.7473 138.236 38.982C136.977 39.1953 135.665 39.3873 134.3 39.558L134.524 36.838C135.996 36.5393 137.116 35.9527 137.884 35.078C138.652 34.2033 139.036 33.2113 139.036 32.102C139.036 31.0993 138.759 30.2567 138.204 29.574C137.671 28.87 136.924 28.3473 135.964 28.006C135.004 27.6647 133.916 27.5367 132.7 27.622C131.313 27.686 130.161 27.9527 129.244 28.422C128.327 28.8913 127.644 29.478 127.196 30.182C126.769 30.8647 126.556 31.6007 126.556 32.39C126.577 33.4993 127.015 34.5127 127.868 35.43C128.721 36.326 129.927 36.8593 131.484 37.03C131.505 37.4993 131.516 37.9687 131.516 38.438C131.537 38.9073 131.548 39.3767 131.548 39.846C130.865 39.91 130.204 39.9633 129.564 40.006C128.924 40.0273 128.327 40.0487 127.772 40.07C127.239 40.0913 126.545 40.102 125.692 40.102C124.839 40.0807 124.039 40.0273 123.292 39.942C123.143 40.006 122.961 40.1553 122.748 40.39C122.535 40.6247 122.428 40.8593 122.428 41.094C122.449 41.2007 122.588 41.3713 122.844 41.606C123.121 41.8193 123.42 42.0433 123.74 42.278C124.06 42.4913 124.295 42.6407 124.444 42.726C124.679 42.8753 124.881 42.95 125.052 42.95ZM143.356 47.014C143.463 47.5473 143.708 47.814 144.092 47.814C144.497 47.814 144.828 47.6327 145.084 47.27C145.361 46.9287 145.575 46.4913 145.724 45.958C145.873 45.4247 145.98 44.8807 146.044 44.326C146.108 43.7713 146.14 43.2913 146.14 42.886L146.172 23.814C146.172 23.3233 146.204 22.8327 146.268 22.342C146.332 21.8513 146.385 21.4673 146.428 21.19C146.428 20.934 146.236 20.678 145.852 20.422C145.511 20.1873 145.073 19.942 144.54 19.686C144.007 19.43 143.495 19.2593 143.004 19.174C142.663 19.11 142.375 19.1313 142.14 19.238C141.927 19.3447 141.735 19.5793 141.564 19.942C141.351 20.39 141.447 20.742 141.852 20.998C142.257 21.254 142.545 21.4887 142.716 21.702C142.908 21.894 143.025 22.1393 143.068 22.438C143.111 22.7367 143.132 23.1847 143.132 23.782V43.046V44.166C143.153 44.6353 143.175 45.1367 143.196 45.67C143.239 46.182 143.292 46.63 143.356 47.014ZM125.372 27.174C125.543 27.1953 125.831 27.1633 126.236 27.078C126.812 26.9713 127.463 26.886 128.188 26.822C128.935 26.7367 129.671 26.6727 130.396 26.63C131.143 26.566 131.793 26.5233 132.348 26.502C133.287 26.438 134.257 26.406 135.26 26.406C136.284 26.3847 137.233 26.3847 138.108 26.406C139.004 26.406 139.729 26.4273 140.284 26.47C140.433 26.4913 140.625 26.3953 140.86 26.182C141.116 25.9473 141.244 25.7447 141.244 25.574C141.244 25.4673 141.191 25.2647 141.084 24.966C140.999 24.646 140.871 24.3473 140.7 24.07C140.529 23.814 140.241 23.7393 139.836 23.846C139.303 23.974 138.396 24.134 137.116 24.326C135.857 24.518 134.119 24.646 131.9 24.71C131.153 24.7313 130.279 24.742 129.276 24.742C128.273 24.742 127.324 24.7207 126.428 24.678C125.553 24.6353 124.892 24.5713 124.444 24.486C124.273 24.486 124.081 24.614 123.868 24.87C123.655 25.1047 123.569 25.3287 123.612 25.542C123.719 25.734 123.9 25.9687 124.156 26.246C124.412 26.502 124.615 26.694 124.764 26.822C124.999 27.0353 125.201 27.1527 125.372 27.174ZM134.556 34.566C134.108 34.886 133.521 35.0673 132.796 35.11C131.815 35.1527 131.036 34.8967 130.46 34.342C129.905 33.766 129.617 33.0727 129.596 32.262C129.596 31.878 129.703 31.462 129.916 31.014C130.129 30.566 130.481 30.1713 130.972 29.83C131.463 29.4887 132.081 29.318 132.828 29.318C133.596 29.2967 134.204 29.4567 134.652 29.798C135.121 30.118 135.452 30.502 135.644 30.95C135.836 31.3767 135.932 31.7713 135.932 32.134C135.932 32.5607 135.815 32.998 135.58 33.446C135.367 33.8727 135.025 34.246 134.556 34.566ZM130.268 22.662C130.801 22.8113 131.271 22.918 131.676 22.982C132.209 23.046 132.817 23.078 133.5 23.078C134.204 23.0567 134.876 23.014 135.516 22.95C136.156 22.886 136.657 22.79 137.02 22.662C137.276 22.5127 137.489 22.2887 137.66 21.99C137.831 21.67 137.927 21.4247 137.948 21.254C137.948 21.0833 137.831 20.902 137.596 20.71C137.383 20.518 137.105 20.4113 136.764 20.39C136.359 20.4327 135.847 20.4753 135.228 20.518C134.631 20.5607 133.991 20.582 133.308 20.582C132.519 20.582 131.687 20.5393 130.812 20.454C129.959 20.3687 129.127 20.2513 128.316 20.102C128.017 20.1233 127.793 20.3047 127.644 20.646C127.495 20.9873 127.473 21.254 127.58 21.446C127.857 21.6807 128.241 21.9047 128.732 22.118C129.223 22.3313 129.735 22.5127 130.268 22.662ZM91.1651 21.8986L90.8989 22.3929L90.3382 22.4229C90.0022 22.4409 89.6815 22.6052 89.4729 22.8978C89.1088 23.4085 89.2276 24.1176 89.7383 24.4817C90.2489 24.8458 90.9581 24.727 91.3222 24.2164C91.5365 23.9158 91.5844 23.5473 91.4812 23.217L91.3137 22.6808L91.6844 22.2589C91.7167 22.2221 91.7375 22.1824 91.7481 22.1429C91.7582 22.1056 91.7629 22.0557 91.7478 21.9882C91.7102 21.8201 91.5447 21.7132 91.376 21.7481C91.3144 21.7609 91.273 21.7829 91.2436 21.8053C91.2129 21.8286 91.1861 21.8597 91.1651 21.8986ZM90.3717 23.5932C90.5556 23.7243 90.8087 23.6847 90.9371 23.5046C91.0655 23.3245 91.0206 23.0723 90.8367 22.9412C90.6528 22.8101 90.3997 22.8497 90.2713 23.0298C90.1429 23.2099 90.1879 23.4621 90.3717 23.5932ZM91.6191 27.0476C91.3434 27.4342 90.8697 27.4805 90.5804 27.2742C90.2912 27.068 90.1805 26.6051 90.4562 26.2184C90.7319 25.8317 91.2056 25.7855 91.4949 25.9917C91.7841 26.198 91.8948 26.6609 91.6191 27.0476ZM88.9384 32.0002L88.1567 30.2857C88.0037 30.6429 87.922 30.9828 87.9032 31.2742C87.8696 31.7951 88.0314 31.9982 88.1164 32.0589C88.2014 32.1195 88.4462 32.2062 88.9277 32.0047L88.9384 32.0002Z" fill="black"/>
</svg>
