<svg width="174" height="84" viewBox="0 0 174 84" fill="none" xmlns="http://www.w3.org/2000/svg">
<rect width="174" height="84" fill="#E5E5E5"/>
<path fill-rule="evenodd" clip-rule="evenodd" d="M26.3818 3.48969C26.4224 3.47073 26.4611 3.44938 26.4979 3.4259H138.55C144.264 3.4259 149.045 7.41952 150.254 12.7678L159.506 8.81027C160.268 8.48447 161.149 8.83782 161.475 9.59949C161.801 10.3612 161.448 11.2427 160.686 11.5685L150.55 15.9043V21.1349L161.302 22.8108C162.762 23.0384 163.48 24.7161 162.636 25.929L155.447 36.2638C155.405 36.3239 155.361 36.3809 155.315 36.4346C154.191 38.5137 152.383 40.2418 150.042 41.2434C150.214 41.1698 150.383 41.0922 150.55 41.0108V49.2199L152.53 46.6462C152.584 46.5386 152.654 46.4343 152.743 46.3358C153.1 45.9364 153.654 45.732 154.192 45.754C154.452 45.757 154.708 45.8126 154.939 45.9262C155.06 45.9858 155.166 46.0577 155.258 46.1391L167.923 53.8395L171.36 52.3694C172.122 52.0436 173.003 52.3969 173.329 53.1586C173.655 53.9203 173.301 54.8019 172.54 55.1277L168.422 56.8891C167.868 57.126 167.251 57.0038 166.83 56.6267L154.384 49.0596L151.922 52.26C151.868 52.3674 151.797 52.4716 151.709 52.5698C151.352 52.9688 150.799 53.1732 150.262 53.1518C150.357 53.1556 150.454 53.1523 150.55 53.1419V60.7377V62.7377H148.55H139.513L138.795 68.7182C138.789 68.7777 138.78 68.8365 138.767 68.8945C138.719 69.1114 138.625 69.3086 138.497 69.4768C138.376 69.6349 138.224 69.7708 138.043 69.8732C137.985 69.9058 137.926 69.9347 137.864 69.9596L133.393 71.8722C132.631 72.198 131.75 71.8447 131.424 71.083C131.098 70.3213 131.451 69.4397 132.213 69.1139L135.916 67.5298L136.491 62.7377H135.7C136.01 62.4602 136.308 62.1778 136.593 61.8913C134.55 63.9443 131.85 65.7845 128.683 67.1389C125.937 68.3136 123.169 68.9823 120.593 69.1779L119.626 77.2411C119.623 77.268 119.619 77.2948 119.615 77.3215C119.611 77.3494 119.606 77.3772 119.6 77.4048C119.551 77.6355 119.449 77.8442 119.31 78.0199C119.148 78.225 118.935 78.3851 118.692 78.4829L114.223 80.3942C113.461 80.72 112.58 80.3667 112.254 79.605C111.928 78.8433 112.282 77.9617 113.043 77.6359L116.747 76.0518L117.571 69.1847C113.369 68.8627 110.038 67.1119 108.754 64.1112C108.564 63.6659 108.424 63.207 108.334 62.7377H12.5497C5.92232 62.7377 0.549744 57.3651 0.549744 50.7377V24.9504L5.30698 23.7072C5.48376 23.6611 5.63707 23.5703 5.75805 23.4503L5.76308 23.449L5.7686 23.4396C5.88101 23.3247 5.96437 23.1839 6.01119 23.0302L11.231 14.2201C11.2359 14.2117 11.241 14.2034 11.2461 14.1951C11.3193 14.0779 11.413 13.981 11.5198 13.9062C11.6266 13.8312 11.7498 13.776 11.8851 13.7472C11.8946 13.7451 11.9042 13.7432 11.9138 13.7415L17.2708 12.7287L19.8799 6.53113C19.8835 6.52254 19.8873 6.51403 19.8911 6.50559C19.9409 6.49127 19.9902 6.47287 20.0387 6.45026L26.3818 3.48969ZM108.232 60.7377C108.624 55.9513 113.342 50.5968 120.329 47.6081C123.496 46.2535 126.692 45.5717 129.588 45.5124C129.586 45.4686 129.585 45.4238 129.585 45.378V21.25C129.585 20.226 130.214 19.714 131.473 19.714C132.753 19.714 133.393 20.226 133.393 21.25V41.0239C134.317 39.8767 135.539 38.9262 137.004 38.2997C137.13 38.2455 137.258 38.1943 137.385 38.146C136.753 37.3739 136.218 36.5009 135.806 35.5376C133.451 30.031 136.006 23.6575 141.512 21.3021C142.789 20.756 144.112 20.4738 145.422 20.4312C145.422 20.4195 145.423 20.4079 145.424 20.3962C145.426 20.3832 145.427 20.3702 145.429 20.3572L146.021 15.4214C146.027 15.3619 146.036 15.303 146.049 15.245C146.097 15.032 146.188 14.8381 146.313 14.6719C146.437 14.5055 146.598 14.3632 146.789 14.2581C146.841 14.2293 146.895 14.2036 146.95 14.1811L148.378 13.5704C147.508 8.93412 143.439 5.4259 138.55 5.4259H26.9401L21.4331 7.99624L19.0057 13.7622C18.9691 13.8491 18.9217 13.9281 18.8657 13.9984C18.7415 14.3012 18.4713 14.5371 18.1257 14.6025L12.7241 15.6237L7.27479 24.8211L7.2659 24.8359C7.13564 25.048 6.92648 25.2121 6.66661 25.28L2.54974 26.3558V50.7377C2.54974 56.2605 7.02689 60.7377 12.5497 60.7377H108.232ZM139.753 60.7377H148.55V52.375L147.389 51.669C146.473 52.7767 145.277 53.6947 143.85 54.305C142.731 54.7837 141.573 55.0291 140.434 55.0631L139.753 60.7377ZM149.194 52.7668C149.285 52.8482 149.392 52.92 149.513 52.9796C149.392 52.9199 149.285 52.8481 149.194 52.7668ZM148.55 42.2542V41.7583C148.471 41.7792 148.393 41.799 148.314 41.8181C148.396 41.9604 148.475 42.1058 148.55 42.2542ZM148.55 20.7883V19.5268L148.407 20.7146C148.406 20.7265 148.404 20.7385 148.403 20.7503C148.452 20.7626 148.501 20.7753 148.55 20.7883ZM2.23745 22.4422L0.549744 22.8832V5.4259V3.4259H2.54974H21.7896L19.1928 4.63794C19.051 4.70414 18.932 4.79936 18.8395 4.91324C18.8273 4.96153 18.8113 5.00953 18.7914 5.05685L16.395 10.749C16.2992 11.1093 16.0048 11.4012 15.614 11.475L12.9119 11.9859L10.6659 12.4105L4.90898 21.4782C4.83798 21.5901 4.74845 21.683 4.64693 21.7556C4.56704 21.8128 4.47754 21.859 4.38008 21.8913C4.35816 21.8985 4.33599 21.905 4.31363 21.9108L2.38255 22.4154C2.33418 22.428 2.28571 22.4369 2.23745 22.4422ZM2.54974 20.3045L3.43137 20.0742L9.08559 11.1683C9.20332 10.8498 9.48035 10.5993 9.83825 10.5316L12.5404 10.0207L14.7038 9.6117L16.466 5.4259H2.54974V20.3045ZM137.349 55.5928L137.46 54.6614C135.106 53.9339 133.102 52.2577 132.081 49.8721C131.901 49.4518 131.759 49.0246 131.651 48.5939C129.573 48.3709 127.122 48.5762 124.542 49.2966L128.706 52.4163C129.369 52.913 129.504 53.8531 129.007 54.5161C128.51 55.1791 127.57 55.3139 126.907 54.8172L122.695 51.661L120.958 66.1322C123.013 65.9124 125.245 65.3466 127.503 64.3806C131.423 62.704 134.416 60.2519 136.142 57.7917C136.686 57.0154 137.081 56.2798 137.349 55.5928ZM138.183 41.058C138.843 40.7759 139.513 40.6131 140.171 40.5567C141.546 41.3857 143.096 41.9044 144.702 42.0658C145.258 42.577 145.709 43.2005 146.014 43.9124C147.207 46.7009 145.866 50.1797 142.67 51.5467C139.474 52.9138 136.032 51.4807 134.839 48.6923C133.647 45.9038 134.987 42.425 138.183 41.058ZM159.26 25.5287L148.407 23.837L148.196 23.8073L147.986 23.7453C146.297 23.2484 144.438 23.3135 142.692 24.0604C138.709 25.7642 136.861 30.3745 138.565 34.3578C140.268 38.341 144.879 40.1889 148.862 38.4851C150.559 37.7594 151.862 36.5128 152.675 35.0084L152.83 34.7227L153.011 34.5128L159.26 25.5287ZM145.569 31.3614C146.02 32.4158 147.223 32.9124 148.255 32.4708C149.288 32.0292 149.759 30.8164 149.308 29.7621C148.857 28.7078 147.655 28.2111 146.622 28.6528C145.59 29.0944 145.118 30.3071 145.569 31.3614ZM33.6696 46.914C34.9496 46.914 35.5896 46.402 35.5896 45.378V33.378H37.4776C37.7976 33.378 38.0536 33.2926 38.2456 33.122V45.378C38.2456 46.402 38.875 46.914 40.1336 46.914C41.4136 46.914 42.0536 46.402 42.0536 45.378V21.25C42.0536 20.226 41.4136 19.714 40.1336 19.714C38.875 19.714 38.2456 20.226 38.2456 21.25V30.402C38.0536 30.2313 37.7976 30.146 37.4776 30.146H35.5896V21.25C35.5896 20.226 34.9496 19.714 33.6696 19.714C32.411 19.714 31.7816 20.226 31.7816 21.25V45.378C31.7816 46.402 32.411 46.914 33.6696 46.914ZM14.9496 42.978C15.419 43.9806 16.2403 44.2366 17.4136 43.746C21.851 41.9113 24.891 39.3833 26.5336 36.162C28.1976 32.9193 29.0296 30.3806 29.0296 28.546V22.338C29.0296 21.8473 28.8803 21.41 28.5816 21.026C28.3043 20.6206 27.7816 20.418 27.0136 20.418H16.6776C15.867 20.418 15.4616 20.962 15.4616 22.05C15.483 23.1166 15.8883 23.65 16.6776 23.65H24.9336C25.083 23.65 25.1683 23.682 25.1896 23.746C25.211 23.81 25.2216 23.8846 25.2216 23.97V27.874C25.2216 30.882 24.1976 33.5593 22.1496 35.906C20.1016 38.2526 17.9043 39.9273 15.5576 40.93C14.7043 41.2926 14.5016 41.9753 14.9496 42.978ZM69.0491 46.914C70.3291 46.914 70.9691 46.402 70.9691 45.378V21.25C70.9691 20.226 70.3291 19.714 69.0491 19.714C67.7905 19.714 67.1611 20.226 67.1611 21.25V45.378C67.1611 46.402 67.7905 46.914 69.0491 46.914ZM60.4091 42.37C61.6891 42.3486 62.3291 41.826 62.3291 40.802V22.338C62.3291 21.8473 62.1798 21.41 61.8811 21.026C61.6038 20.6206 61.0811 20.418 60.3131 20.418H49.4011C48.6331 20.418 48.0998 20.6206 47.8011 21.026C47.5238 21.41 47.3851 21.8473 47.3851 22.338V40.45C47.3851 40.9406 47.5238 41.3886 47.8011 41.794C48.0998 42.178 48.6331 42.37 49.4011 42.37H56.6331C57.4225 42.37 57.8171 41.8366 57.8171 40.77C57.8385 39.682 57.4438 39.138 56.6331 39.138H51.4811C51.3318 39.138 51.2465 39.106 51.2251 39.042C51.2038 38.978 51.1931 38.9033 51.1931 38.818V23.97C51.1931 23.8846 51.2038 23.81 51.2251 23.746C51.2465 23.682 51.3318 23.65 51.4811 23.65H58.2331C58.3825 23.65 58.4678 23.682 58.4891 23.746C58.5105 23.81 58.5211 23.8846 58.5211 23.97V40.802C58.5211 41.8473 59.1505 42.37 60.4091 42.37ZM102.257 47.17C103.729 45.8686 104.465 44.3006 104.465 42.466C104.465 40.6313 103.729 39.0633 102.257 37.762C100.785 36.4393 98.9926 35.778 96.8806 35.778C94.7473 35.778 92.934 36.4286 91.4406 37.73C89.9686 39.0313 89.2326 40.61 89.2326 42.466C89.2326 44.322 89.9686 45.9006 91.4406 47.202C92.934 48.5033 94.7473 49.154 96.8806 49.154C98.9926 49.154 100.785 48.4926 102.257 47.17ZM91.2166 35.522C92.4113 35.1166 92.838 34.4233 92.4966 33.442L88.5606 21.378C88.2193 20.3966 87.4513 20.1193 86.2566 20.546C85.7233 20.738 85.3393 20.9833 85.1046 21.282C84.87 20.9833 84.486 20.738 83.9526 20.546C82.758 20.1193 81.99 20.3966 81.6486 21.378L75.3766 40.258C75.0353 41.2393 75.462 41.9326 76.6566 42.338C77.8513 42.7433 78.6193 42.4553 78.9606 41.474L85.1046 23.01L88.9126 34.658C89.254 35.6393 90.022 35.9273 91.2166 35.522ZM97.4566 35.298C98.7366 35.298 99.3766 34.786 99.3766 33.762V21.25C99.3766 20.226 98.7366 19.714 97.4566 19.714C96.198 19.714 95.5686 20.226 95.5686 21.25V33.762C95.5686 34.786 96.198 35.298 97.4566 35.298ZM99.5366 40.034C100.283 40.6953 100.657 41.506 100.657 42.466C100.657 43.426 100.283 44.2366 99.5366 44.898C98.8113 45.5593 97.926 45.89 96.8806 45.89C95.8353 45.89 94.9393 45.5593 94.1926 44.898C93.4673 44.2366 93.1046 43.426 93.1046 42.466C93.1046 41.506 93.4673 40.6953 94.1926 40.034C94.9393 39.3726 95.8353 39.042 96.8806 39.042C97.926 39.042 98.8113 39.3726 99.5366 40.034ZM104.625 28.674C105.115 28.1833 105.361 27.5966 105.361 26.914C105.361 26.2313 105.115 25.6553 104.625 25.186C104.155 24.6953 103.579 24.45 102.897 24.45C102.214 24.45 101.627 24.6953 101.137 25.186C100.667 25.6553 100.433 26.2313 100.433 26.914C100.433 27.5966 100.667 28.1833 101.137 28.674C101.627 29.1433 102.214 29.378 102.897 29.378C103.579 29.378 104.155 29.1433 104.625 28.674ZM119.185 42.466C119.483 42.0606 119.633 41.6126 119.633 41.122V37.378C120.785 37.0793 121.809 36.5246 122.705 35.714C124.091 34.434 124.785 32.9193 124.785 31.17C124.785 29.3993 124.091 27.8846 122.705 26.626C122.598 26.5406 122.481 26.4446 122.353 26.338H125.777C126.587 26.338 126.993 25.8046 126.993 24.738C127.014 23.65 126.609 23.106 125.777 23.106H119.633V21.09C119.633 20.066 118.993 19.554 117.713 19.554C116.454 19.554 115.825 20.066 115.825 21.09V23.106H109.393C108.582 23.106 108.177 23.65 108.177 24.738C108.198 25.8046 108.603 26.338 109.393 26.338H112.817C112.689 26.4446 112.571 26.5406 112.465 26.626C111.078 27.8846 110.385 29.3993 110.385 31.17C110.385 32.9193 111.078 34.434 112.465 35.714C113.425 36.5886 114.545 37.1646 115.825 37.442V39.49C115.825 39.5753 115.814 39.65 115.793 39.714C115.771 39.778 115.686 39.81 115.537 39.81H108.465C107.675 39.81 107.27 40.354 107.249 41.442C107.249 42.5086 107.654 43.042 108.465 43.042H117.617C118.385 43.042 118.907 42.85 119.185 42.466ZM120.017 28.642C120.699 29.282 121.041 30.0713 121.041 31.01C121.041 31.9486 120.699 32.7486 120.017 33.41C119.355 34.05 118.555 34.37 117.617 34.37C116.657 34.37 115.846 34.05 115.185 33.41C114.523 32.7486 114.193 31.9486 114.193 31.01C114.193 30.0713 114.523 29.282 115.185 28.642C115.846 27.9806 116.657 27.65 117.617 27.65C118.555 27.65 119.355 27.9806 120.017 28.642ZM111.513 62.9314C112.108 64.323 113.748 65.6176 116.772 66.077C117.144 66.1336 117.53 66.1756 117.928 66.2027L119.727 51.2135C116.678 52.8158 114.324 54.8827 112.87 56.9553C111.114 59.4593 110.917 61.5399 111.513 62.9314Z" fill="#574F49"/>
</svg>
