<svg width="174" height="103" viewBox="0 0 174 103" fill="none" xmlns="http://www.w3.org/2000/svg">
<path fill-rule="evenodd" clip-rule="evenodd" d="M119.453 4.02006L132.009 9.39084C132.064 9.41335 132.118 9.43909 132.17 9.46787C132.361 9.573 132.521 9.71532 132.646 9.88168C132.771 10.0479 132.862 10.2418 132.909 10.4548C132.922 10.5128 132.932 10.5717 132.938 10.6312L133.53 15.567C133.532 15.5786 133.533 15.5902 133.534 15.6018L133.535 15.6174L133.537 15.641C134.846 15.6836 136.17 15.9658 137.447 16.5119C142.953 18.8673 145.508 25.2408 143.152 30.7474C142.74 31.7107 142.205 32.5837 141.574 33.3558C141.701 33.4041 141.828 33.4553 141.955 33.5095C145.103 34.8558 147.128 37.6987 147.495 40.7739C150.85 40.5126 154.762 41.1635 158.63 42.8179C167.329 46.5391 172.511 53.9278 170.205 59.321C168.921 62.3217 165.59 64.0725 161.388 64.3944L162.212 71.2616L165.916 72.8457C166.677 73.1715 167.031 74.0531 166.705 74.8148C166.379 75.5765 165.497 75.9298 164.736 75.604L160.267 73.6927C160.024 73.5949 159.81 73.4347 159.648 73.2297C159.509 73.054 159.408 72.8453 159.359 72.6146C159.348 72.5607 159.339 72.506 159.333 72.4509L158.366 64.3877C156.72 64.2627 154.995 63.9444 153.247 63.4242V77.619L152.695 77.8768C152.686 77.8809 152.678 77.8849 152.67 77.8888L147.231 80.4275L144.663 86.5274C144.49 86.9364 144.078 87.171 143.658 87.1363L138.332 88.1432L133.025 97.1012L132.883 97.3406L132.874 97.3554C132.873 97.3566 132.873 97.3578 132.872 97.359L132.5 97.9862L128.233 99.1012H15.247C8.61956 99.1012 3.24698 93.7286 3.24698 87.1012V61.3139L8.00421 60.0708C8.18099 60.0246 8.33431 59.9339 8.45528 59.8138L8.46031 59.8125L8.46583 59.8032C8.57825 59.6882 8.6616 59.5475 8.70842 59.3937L13.9282 50.5837C13.9305 50.5797 13.9329 50.5757 13.9353 50.5718C13.938 50.5673 13.9406 50.563 13.9434 50.5586C14.0165 50.4414 14.1102 50.3445 14.217 50.2697C14.3239 50.1947 14.4471 50.1396 14.5823 50.1107C14.5918 50.1087 14.6014 50.1068 14.611 50.105L19.9681 49.0922L22.5772 42.8947C22.5808 42.8861 22.5845 42.8776 22.5883 42.8691C22.6381 42.8548 22.6875 42.8364 22.7359 42.8138L29.079 39.8532C29.1196 39.8343 29.1584 39.8129 29.1952 39.7894H129.636C129.519 40.4556 129.484 41.1264 129.527 41.7894H126.393C126.406 41.8115 126.418 41.8337 126.429 41.856L128.891 45.0559L130.083 44.331C129.314 42.3134 129.288 40.042 130.187 37.9424C130.322 37.6248 130.476 37.3198 130.645 37.0279C130.063 36.8872 129.486 36.6963 128.917 36.4531C126.575 35.4516 124.768 33.7234 123.644 31.6444C123.598 31.5907 123.554 31.5337 123.512 31.4736L116.323 21.1388C115.479 19.9258 116.197 18.2482 117.657 18.0206L130.096 16.0817L130.126 16.0771C130.269 16.0352 130.412 15.9962 130.556 15.9601C130.555 15.9482 130.553 15.9363 130.552 15.9244L130.059 11.8198L118.273 6.77832C117.511 6.45252 117.158 5.57095 117.484 4.80928C117.809 4.0476 118.691 3.69426 119.453 4.02006ZM126.216 41.5456C126.216 41.5455 126.216 41.5455 126.216 41.5454C125.859 41.146 125.305 40.9416 124.767 40.9636C124.507 40.9666 124.251 41.0222 124.02 41.1358C123.899 41.1954 123.792 41.2672 123.701 41.3486L122.976 41.7894H29.6374L24.1304 44.3598L21.703 50.1257C21.6664 50.2126 21.619 50.2917 21.5629 50.3619C21.4388 50.6648 21.1686 50.9006 20.823 50.966L15.4213 51.9872L9.97202 61.1846L9.96313 61.1994C9.83288 61.4115 9.62371 61.5756 9.36385 61.6435L5.24698 62.7193V87.1012C5.24698 92.6241 9.72413 97.1012 15.247 97.1012H127.037L131.371 95.9685L136.839 86.7397C136.844 86.7312 136.849 86.7229 136.854 86.7146C136.928 86.5974 137.021 86.5005 137.128 86.4257C137.235 86.3507 137.358 86.2956 137.493 86.2667C137.503 86.2647 137.512 86.2628 137.522 86.261L143.044 85.217L145.535 79.3002C145.547 79.2725 145.559 79.2453 145.573 79.2187C145.671 79.0318 145.829 78.8743 146.035 78.7781L151.247 76.3457V62.7429C150.923 62.6185 150.599 62.4871 150.276 62.3487C147.109 60.9943 144.409 59.1541 142.366 57.101L143.042 62.7396L146.746 64.3237C147.508 64.6495 147.861 65.5311 147.535 66.2928C147.209 67.0545 146.328 67.4078 145.566 67.082L141.095 65.1694C141.033 65.1445 140.973 65.1156 140.916 65.0829C140.735 64.9806 140.582 64.8447 140.462 64.6866C140.334 64.5183 140.24 64.3212 140.192 64.1043C140.179 64.0463 140.169 63.9875 140.163 63.928L138.525 50.2729C137.386 50.2389 136.228 49.9935 135.109 49.5148C133.682 48.9045 132.486 47.9865 131.57 46.8788L129.765 47.9765C129.674 48.0579 129.567 48.1297 129.446 48.1893C129.215 48.3032 128.957 48.3588 128.697 48.3615C128.16 48.3829 127.607 48.1785 127.25 47.7796C127.162 47.6813 127.091 47.5772 127.037 47.4698L124.575 44.2694L112.129 51.8365C111.708 52.2136 111.091 52.3358 110.537 52.0989L106.419 50.3374C105.657 50.0116 105.304 49.1301 105.63 48.3684C105.956 47.6067 106.837 47.2534 107.599 47.5792L111.036 49.0493L123.701 41.3488C123.792 41.2674 123.899 41.1956 124.02 41.136C124.251 41.0224 124.507 40.9668 124.767 40.9638C125.305 40.9418 125.859 41.1462 126.216 41.5456ZM141.61 50.8026C141.878 51.4896 142.272 52.2252 142.817 53.0015C144.542 55.4617 147.536 57.9138 151.455 59.5904C153.714 60.5564 155.946 61.1222 158 61.342L156.264 46.8708L152.052 50.027C151.389 50.5237 150.448 50.3889 149.952 49.7259C149.455 49.0629 149.59 48.1228 150.253 47.6261L154.417 44.5063C151.836 43.786 149.386 43.5807 147.307 43.8037C147.2 44.2344 147.057 44.6616 146.878 45.0819C145.857 47.4675 143.852 49.1437 141.498 49.8712L141.61 50.8026ZM134.257 37.2756C135.863 37.1142 137.412 36.5955 138.788 35.7665C139.446 35.8229 140.116 35.9857 140.775 36.2678C143.971 37.6348 145.312 41.1136 144.119 43.9021C142.927 46.6905 139.485 48.1236 136.289 46.7565C133.093 45.3895 131.752 41.9107 132.945 39.1222C133.249 38.4103 133.7 37.7868 134.257 37.2756ZM119.699 20.7385L130.551 19.0468L130.763 19.0171L130.973 18.9551C132.662 18.4582 134.521 18.5233 136.267 19.2702C140.25 20.974 142.098 25.5843 140.394 29.5676C138.69 33.5508 134.08 35.3987 130.097 33.6949C128.4 32.9692 127.096 31.7226 126.283 30.2182L126.129 29.9325L125.948 29.7226L119.699 20.7385ZM133.39 26.5712C132.939 27.6255 131.736 28.1222 130.703 27.6806C129.671 27.2389 129.2 26.0262 129.651 24.9719C130.102 23.9176 131.304 23.4209 132.337 23.8625C133.369 24.3042 133.841 25.5169 133.39 26.5712ZM36.3669 83.2776C37.6469 83.2776 38.2869 82.7656 38.2869 81.7416V69.7416H40.1749C40.4949 69.7416 40.7509 69.6562 40.9429 69.4856V81.7416C40.9429 82.7656 41.5722 83.2776 42.8309 83.2776C44.1109 83.2776 44.7509 82.7656 44.7509 81.7416V57.6136C44.7509 56.5896 44.1109 56.0776 42.8309 56.0776C41.5722 56.0776 40.9429 56.5896 40.9429 57.6136V66.7656C40.7509 66.5949 40.4949 66.5096 40.1749 66.5096H38.2869V57.6136C38.2869 56.5896 37.6469 56.0776 36.3669 56.0776C35.1082 56.0776 34.4789 56.5896 34.4789 57.6136V81.7416C34.4789 82.7656 35.1082 83.2776 36.3669 83.2776ZM17.6469 79.3416C18.1162 80.3442 18.9375 80.6002 20.1109 80.1096C24.5482 78.2749 27.5882 75.7469 29.2309 72.5256C30.8949 69.2829 31.7269 66.7442 31.7269 64.9096V58.7016C31.7269 58.2109 31.5775 57.7736 31.2789 57.3896C31.0015 56.9842 30.4789 56.7816 29.7109 56.7816H19.3749C18.5642 56.7816 18.1589 57.3256 18.1589 58.4136C18.1802 59.4802 18.5855 60.0136 19.3749 60.0136H27.6309C27.7802 60.0136 27.8655 60.0456 27.8869 60.1096C27.9082 60.1736 27.9189 60.2482 27.9189 60.3336V64.2376C27.9189 67.2456 26.8949 69.9229 24.8469 72.2696C22.7989 74.6162 20.6015 76.2909 18.2549 77.2936C17.4015 77.6562 17.1989 78.3389 17.6469 79.3416ZM71.7464 83.2776C73.0264 83.2776 73.6664 82.7656 73.6664 81.7416V57.6136C73.6664 56.5896 73.0264 56.0776 71.7464 56.0776C70.4877 56.0776 69.8584 56.5896 69.8584 57.6136V81.7416C69.8584 82.7656 70.4877 83.2776 71.7464 83.2776ZM63.1064 78.7336C64.3864 78.7122 65.0264 78.1896 65.0264 77.1656V58.7016C65.0264 58.2109 64.877 57.7736 64.5784 57.3896C64.301 56.9842 63.7784 56.7816 63.0104 56.7816H52.0984C51.3304 56.7816 50.797 56.9842 50.4984 57.3896C50.221 57.7736 50.0824 58.2109 50.0824 58.7016V76.8136C50.0824 77.3042 50.221 77.7522 50.4984 78.1576C50.797 78.5416 51.3304 78.7336 52.0984 78.7336H59.3304C60.1197 78.7336 60.5144 78.2002 60.5144 77.1336C60.5357 76.0456 60.141 75.5016 59.3304 75.5016H54.1784C54.029 75.5016 53.9437 75.4696 53.9224 75.4056C53.901 75.3416 53.8904 75.2669 53.8904 75.1816V60.3336C53.8904 60.2482 53.901 60.1736 53.9224 60.1096C53.9437 60.0456 54.029 60.0136 54.1784 60.0136H60.9304C61.0797 60.0136 61.165 60.0456 61.1864 60.1096C61.2077 60.1736 61.2184 60.2482 61.2184 60.3336V77.1656C61.2184 78.2109 61.8477 78.7336 63.1064 78.7336ZM104.954 83.5336C106.426 82.2322 107.162 80.6642 107.162 78.8296C107.162 76.9949 106.426 75.4269 104.954 74.1256C103.482 72.8029 101.69 72.1416 99.5779 72.1416C97.4445 72.1416 95.6312 72.7922 94.1379 74.0936C92.6659 75.3949 91.9299 76.9736 91.9299 78.8296C91.9299 80.6856 92.6659 82.2642 94.1379 83.5656C95.6312 84.8669 97.4445 85.5176 99.5779 85.5176C101.69 85.5176 103.482 84.8562 104.954 83.5336ZM93.9139 71.8856C95.1085 71.4802 95.5352 70.7869 95.1939 69.8056L91.2579 57.7416C90.9165 56.7602 90.1485 56.4829 88.9539 56.9096C88.4205 57.1016 88.0365 57.3469 87.8019 57.6456C87.5672 57.3469 87.1832 57.1016 86.6499 56.9096C85.4552 56.4829 84.6872 56.7602 84.3459 57.7416L78.0739 76.6216C77.7325 77.6029 78.1592 78.2962 79.3539 78.7016C80.5485 79.1069 81.3165 78.8189 81.6579 77.8376L87.8019 59.3736L91.6099 71.0216C91.9512 72.0029 92.7192 72.2909 93.9139 71.8856ZM100.154 71.6616C101.434 71.6616 102.074 71.1496 102.074 70.1256V57.6136C102.074 56.5896 101.434 56.0776 100.154 56.0776C98.8952 56.0776 98.2659 56.5896 98.2659 57.6136V70.1256C98.2659 71.1496 98.8952 71.6616 100.154 71.6616ZM102.234 76.3975C102.981 77.0589 103.354 77.8696 103.354 78.8296C103.354 79.7896 102.981 80.6002 102.234 81.2616C101.509 81.9229 100.623 82.2536 99.5779 82.2536C98.5325 82.2536 97.6365 81.9229 96.8899 81.2616C96.1645 80.6002 95.8019 79.7896 95.8019 78.8296C95.8019 77.8696 96.1645 77.0589 96.8899 76.3975C97.6365 75.7362 98.5325 75.4056 99.5779 75.4056C100.623 75.4056 101.509 75.7362 102.234 76.3975ZM107.322 65.0376C107.813 64.5469 108.058 63.9602 108.058 63.2776C108.058 62.5949 107.813 62.0189 107.322 61.5496C106.853 61.0589 106.277 60.8136 105.594 60.8136C104.911 60.8136 104.325 61.0589 103.834 61.5496C103.365 62.0189 103.13 62.5949 103.13 63.2776C103.13 63.9602 103.365 64.5469 103.834 65.0376C104.325 65.5069 104.911 65.7416 105.594 65.7416C106.277 65.7416 106.853 65.5069 107.322 65.0376ZM121.882 78.8296C122.181 78.4242 122.33 77.9762 122.33 77.4856V73.7416C123.482 73.4429 124.506 72.8882 125.402 72.0776C126.789 70.7976 127.482 69.2829 127.482 67.5336C127.482 65.7629 126.789 64.2482 125.402 62.9896C125.295 62.9042 125.178 62.8082 125.05 62.7016H128.474C129.285 62.7016 129.69 62.1682 129.69 61.1016C129.711 60.0136 129.306 59.4696 128.474 59.4696H122.33V57.4536C122.33 56.4296 121.69 55.9176 120.41 55.9176C119.151 55.9176 118.522 56.4296 118.522 57.4536V59.4696H112.09C111.279 59.4696 110.874 60.0136 110.874 61.1016C110.895 62.1682 111.301 62.7016 112.09 62.7016H115.514C115.386 62.8082 115.269 62.9042 115.162 62.9896C113.775 64.2482 113.082 65.7629 113.082 67.5336C113.082 69.2829 113.775 70.7976 115.162 72.0776C116.122 72.9522 117.242 73.5282 118.522 73.8056V75.8536C118.522 75.9389 118.511 76.0136 118.49 76.0776C118.469 76.1416 118.383 76.1736 118.234 76.1736H111.162C110.373 76.1736 109.967 76.7176 109.946 77.8056C109.946 78.8722 110.351 79.4056 111.162 79.4056H120.314C121.082 79.4056 121.605 79.2136 121.882 78.8296ZM134.17 83.2776C135.45 83.2776 136.09 82.7656 136.09 81.7416V57.6136C136.09 56.5896 135.45 56.0776 134.17 56.0776C132.911 56.0776 132.282 56.5896 132.282 57.6136V81.7416C132.282 82.7656 132.911 83.2776 134.17 83.2776ZM122.714 65.0056C123.397 65.6456 123.738 66.4349 123.738 67.3736C123.738 68.3122 123.397 69.1122 122.714 69.7736C122.053 70.4136 121.253 70.7336 120.314 70.7336C119.354 70.7336 118.543 70.4136 117.882 69.7736C117.221 69.1122 116.89 68.3122 116.89 67.3736C116.89 66.4349 117.221 65.6456 117.882 65.0056C118.543 64.3442 119.354 64.0136 120.314 64.0136C121.253 64.0136 122.053 64.3442 122.714 65.0056ZM167.446 58.1412C166.851 59.5327 165.211 60.8274 162.187 61.2868C161.814 61.3434 161.428 61.3854 161.03 61.4125L159.232 46.4233C162.281 48.0255 164.635 50.0924 166.088 52.1651C167.845 54.6691 168.042 56.7497 167.446 58.1412ZM19.1632 41.7894H5.24698V56.6681L6.1286 56.4377L11.7828 47.5318C11.9006 47.2133 12.1776 46.9628 12.5355 46.8951L15.2376 46.3843L17.4011 45.9752L19.1632 41.7894ZM21.5368 41.2768C21.5245 41.3251 21.5085 41.3731 21.4886 41.4204L19.0923 47.1125C18.9964 47.4728 18.7021 47.7647 18.3113 47.8386L15.6092 48.3494L13.3632 48.7741L7.60622 57.8418C7.53521 57.9536 7.44568 58.0465 7.34416 58.1192C7.26428 58.1764 7.17478 58.2225 7.07732 58.2548C7.05539 58.2621 7.03323 58.2686 7.01087 58.2743L5.07979 58.7789C5.03142 58.7916 4.98295 58.8004 4.93469 58.8057L3.24698 59.2467V41.7894V39.7894H5.24698H24.4868L21.89 41.0015C21.7482 41.0677 21.6292 41.1629 21.5368 41.2768ZM151.247 82.9501L150.08 83.4945L147.51 89.6006C147.338 90.0096 146.925 90.2442 146.506 90.2094L141.18 91.2164L137.693 97.1012H151.247V82.9501ZM135.368 97.1012L139.687 89.8128C139.689 89.8092 139.691 89.8055 139.693 89.8018C139.696 89.7971 139.699 89.7924 139.702 89.7878C139.775 89.6706 139.869 89.5736 139.975 89.4988C140.082 89.4238 140.205 89.3687 140.341 89.3399C140.345 89.339 140.348 89.3382 140.352 89.3375C140.358 89.3363 140.364 89.3352 140.369 89.3342L145.892 88.2901L148.384 82.3695C148.471 82.1638 148.618 82.0023 148.796 81.8969C148.834 81.8726 148.874 81.8505 148.916 81.831L151.634 80.5622C151.688 80.5371 151.743 80.5172 151.798 80.5023L153.247 79.8261V97.1012V99.1012H151.247H134.164L135.349 97.1012H135.368Z" fill="#5C544E"/>
<path fill-rule="evenodd" clip-rule="evenodd" d="M119.453 4.02006L132.009 9.39084C132.064 9.41335 132.118 9.43909 132.17 9.46787C132.361 9.573 132.521 9.71532 132.646 9.88168C132.771 10.0479 132.862 10.2418 132.909 10.4548C132.922 10.5128 132.932 10.5717 132.938 10.6312L133.53 15.567C133.532 15.5786 133.533 15.5902 133.534 15.6018L133.535 15.6174L133.537 15.641C134.846 15.6836 136.17 15.9658 137.447 16.5119C142.953 18.8673 145.508 25.2408 143.152 30.7474C142.74 31.7107 142.205 32.5837 141.574 33.3558C141.701 33.4041 141.828 33.4553 141.955 33.5095C145.103 34.8558 147.128 37.6987 147.495 40.7739C150.85 40.5126 154.762 41.1635 158.63 42.8179C167.329 46.5391 172.511 53.9278 170.205 59.321C168.921 62.3217 165.59 64.0725 161.388 64.3944L162.212 71.2616L165.916 72.8457C166.677 73.1715 167.031 74.0531 166.705 74.8148C166.379 75.5765 165.497 75.9298 164.736 75.604L160.267 73.6927C160.024 73.5949 159.81 73.4347 159.648 73.2297C159.509 73.054 159.408 72.8453 159.359 72.6146C159.348 72.5607 159.339 72.506 159.333 72.4509L158.366 64.3877C156.72 64.2627 154.995 63.9444 153.247 63.4242V77.619L152.695 77.8768C152.686 77.8809 152.678 77.8849 152.67 77.8888L147.231 80.4275L144.663 86.5274C144.49 86.9364 144.078 87.171 143.658 87.1363L138.332 88.1432L133.025 97.1012L132.883 97.3406L132.874 97.3554C132.873 97.3566 132.873 97.3578 132.872 97.359L132.5 97.9862L128.233 99.1012H15.247C8.61956 99.1012 3.24698 93.7286 3.24698 87.1012V61.3139L8.00421 60.0708C8.18099 60.0246 8.33431 59.9339 8.45528 59.8138L8.46031 59.8125L8.46583 59.8032C8.57825 59.6882 8.6616 59.5475 8.70842 59.3937L13.9282 50.5837C13.9305 50.5797 13.9329 50.5757 13.9353 50.5718C13.938 50.5673 13.9406 50.563 13.9434 50.5586C14.0165 50.4414 14.1102 50.3445 14.217 50.2697C14.3239 50.1947 14.4471 50.1396 14.5823 50.1107C14.5918 50.1087 14.6014 50.1068 14.611 50.105L19.9681 49.0922L22.5772 42.8947C22.5808 42.8861 22.5845 42.8776 22.5883 42.8691C22.6381 42.8548 22.6875 42.8364 22.7359 42.8138L29.079 39.8532C29.1196 39.8343 29.1584 39.8129 29.1952 39.7894H129.636C129.519 40.4556 129.484 41.1264 129.527 41.7894H126.393C126.406 41.8115 126.418 41.8337 126.429 41.856L128.891 45.0559L130.083 44.331C129.314 42.3134 129.288 40.042 130.187 37.9424C130.322 37.6248 130.476 37.3198 130.645 37.0279C130.063 36.8872 129.486 36.6963 128.917 36.4531C126.575 35.4516 124.768 33.7234 123.644 31.6444C123.598 31.5907 123.554 31.5337 123.512 31.4736L116.323 21.1388C115.479 19.9258 116.197 18.2482 117.657 18.0206L130.096 16.0817L130.126 16.0771C130.269 16.0352 130.412 15.9962 130.556 15.9601C130.555 15.9482 130.553 15.9363 130.552 15.9244L130.059 11.8198L118.273 6.77832C117.511 6.45252 117.158 5.57095 117.484 4.80928C117.809 4.0476 118.691 3.69426 119.453 4.02006ZM126.216 41.5456C126.216 41.5455 126.216 41.5455 126.216 41.5454C125.859 41.146 125.305 40.9416 124.767 40.9636C124.507 40.9666 124.251 41.0222 124.02 41.1358C123.899 41.1954 123.792 41.2672 123.701 41.3486L122.976 41.7894H29.6374L24.1304 44.3598L21.703 50.1257C21.6664 50.2126 21.619 50.2917 21.5629 50.3619C21.4388 50.6648 21.1686 50.9006 20.823 50.966L15.4213 51.9872L9.97202 61.1846L9.96313 61.1994C9.83288 61.4115 9.62371 61.5756 9.36385 61.6435L5.24698 62.7193V87.1012C5.24698 92.6241 9.72413 97.1012 15.247 97.1012H127.037L131.371 95.9685L136.839 86.7397C136.844 86.7312 136.849 86.7229 136.854 86.7146C136.928 86.5974 137.021 86.5005 137.128 86.4257C137.235 86.3507 137.358 86.2956 137.493 86.2667C137.503 86.2647 137.512 86.2628 137.522 86.261L143.044 85.217L145.535 79.3002C145.547 79.2725 145.559 79.2453 145.573 79.2187C145.671 79.0318 145.829 78.8743 146.035 78.7781L151.247 76.3457V62.7429C150.923 62.6185 150.599 62.4871 150.276 62.3487C147.109 60.9943 144.409 59.1541 142.366 57.101L143.042 62.7396L146.746 64.3237C147.508 64.6495 147.861 65.5311 147.535 66.2928C147.209 67.0545 146.328 67.4078 145.566 67.082L141.095 65.1694C141.033 65.1445 140.973 65.1156 140.916 65.0829C140.735 64.9806 140.582 64.8447 140.462 64.6866C140.334 64.5183 140.24 64.3212 140.192 64.1043C140.179 64.0463 140.169 63.9875 140.163 63.928L138.525 50.2729C137.386 50.2389 136.228 49.9935 135.109 49.5148C133.682 48.9045 132.486 47.9865 131.57 46.8788L129.765 47.9765C129.674 48.0579 129.567 48.1297 129.446 48.1893C129.215 48.3032 128.957 48.3588 128.697 48.3615C128.16 48.3829 127.607 48.1785 127.25 47.7796C127.162 47.6813 127.091 47.5772 127.037 47.4698L124.575 44.2694L112.129 51.8365C111.708 52.2136 111.091 52.3358 110.537 52.0989L106.419 50.3374C105.657 50.0116 105.304 49.1301 105.63 48.3684C105.956 47.6067 106.837 47.2534 107.599 47.5792L111.036 49.0493L123.701 41.3488C123.792 41.2674 123.899 41.1956 124.02 41.136C124.251 41.0224 124.507 40.9668 124.767 40.9638C125.305 40.9418 125.859 41.1462 126.216 41.5456ZM141.61 50.8026C141.878 51.4896 142.272 52.2252 142.817 53.0015C144.542 55.4617 147.536 57.9138 151.455 59.5904C153.714 60.5564 155.946 61.1222 158 61.342L156.264 46.8708L152.052 50.027C151.389 50.5237 150.448 50.3889 149.952 49.7259C149.455 49.0629 149.59 48.1228 150.253 47.6261L154.417 44.5063C151.836 43.786 149.386 43.5807 147.307 43.8037C147.2 44.2344 147.057 44.6616 146.878 45.0819C145.857 47.4675 143.852 49.1437 141.498 49.8712L141.61 50.8026ZM134.257 37.2756C135.863 37.1142 137.412 36.5955 138.788 35.7665C139.446 35.8229 140.116 35.9857 140.775 36.2678C143.971 37.6348 145.312 41.1136 144.119 43.9021C142.927 46.6905 139.485 48.1236 136.289 46.7565C133.093 45.3895 131.752 41.9107 132.945 39.1222C133.249 38.4103 133.7 37.7868 134.257 37.2756ZM119.699 20.7385L130.551 19.0468L130.763 19.0171L130.973 18.9551C132.662 18.4582 134.521 18.5233 136.267 19.2702C140.25 20.974 142.098 25.5843 140.394 29.5676C138.69 33.5508 134.08 35.3987 130.097 33.6949C128.4 32.9692 127.096 31.7226 126.283 30.2182L126.129 29.9325L125.948 29.7226L119.699 20.7385ZM133.39 26.5712C132.939 27.6255 131.736 28.1222 130.703 27.6806C129.671 27.2389 129.2 26.0262 129.651 24.9719C130.102 23.9176 131.304 23.4209 132.337 23.8625C133.369 24.3042 133.841 25.5169 133.39 26.5712ZM36.3669 83.2776C37.6469 83.2776 38.2869 82.7656 38.2869 81.7416V69.7416H40.1749C40.4949 69.7416 40.7509 69.6562 40.9429 69.4856V81.7416C40.9429 82.7656 41.5722 83.2776 42.8309 83.2776C44.1109 83.2776 44.7509 82.7656 44.7509 81.7416V57.6136C44.7509 56.5896 44.1109 56.0776 42.8309 56.0776C41.5722 56.0776 40.9429 56.5896 40.9429 57.6136V66.7656C40.7509 66.5949 40.4949 66.5096 40.1749 66.5096H38.2869V57.6136C38.2869 56.5896 37.6469 56.0776 36.3669 56.0776C35.1082 56.0776 34.4789 56.5896 34.4789 57.6136V81.7416C34.4789 82.7656 35.1082 83.2776 36.3669 83.2776ZM17.6469 79.3416C18.1162 80.3442 18.9375 80.6002 20.1109 80.1096C24.5482 78.2749 27.5882 75.7469 29.2309 72.5256C30.8949 69.2829 31.7269 66.7442 31.7269 64.9096V58.7016C31.7269 58.2109 31.5775 57.7736 31.2789 57.3896C31.0015 56.9842 30.4789 56.7816 29.7109 56.7816H19.3749C18.5642 56.7816 18.1589 57.3256 18.1589 58.4136C18.1802 59.4802 18.5855 60.0136 19.3749 60.0136H27.6309C27.7802 60.0136 27.8655 60.0456 27.8869 60.1096C27.9082 60.1736 27.9189 60.2482 27.9189 60.3336V64.2376C27.9189 67.2456 26.8949 69.9229 24.8469 72.2696C22.7989 74.6162 20.6015 76.2909 18.2549 77.2936C17.4015 77.6562 17.1989 78.3389 17.6469 79.3416ZM71.7464 83.2776C73.0264 83.2776 73.6664 82.7656 73.6664 81.7416V57.6136C73.6664 56.5896 73.0264 56.0776 71.7464 56.0776C70.4877 56.0776 69.8584 56.5896 69.8584 57.6136V81.7416C69.8584 82.7656 70.4877 83.2776 71.7464 83.2776ZM63.1064 78.7336C64.3864 78.7122 65.0264 78.1896 65.0264 77.1656V58.7016C65.0264 58.2109 64.877 57.7736 64.5784 57.3896C64.301 56.9842 63.7784 56.7816 63.0104 56.7816H52.0984C51.3304 56.7816 50.797 56.9842 50.4984 57.3896C50.221 57.7736 50.0824 58.2109 50.0824 58.7016V76.8136C50.0824 77.3042 50.221 77.7522 50.4984 78.1576C50.797 78.5416 51.3304 78.7336 52.0984 78.7336H59.3304C60.1197 78.7336 60.5144 78.2002 60.5144 77.1336C60.5357 76.0456 60.141 75.5016 59.3304 75.5016H54.1784C54.029 75.5016 53.9437 75.4696 53.9224 75.4056C53.901 75.3416 53.8904 75.2669 53.8904 75.1816V60.3336C53.8904 60.2482 53.901 60.1736 53.9224 60.1096C53.9437 60.0456 54.029 60.0136 54.1784 60.0136H60.9304C61.0797 60.0136 61.165 60.0456 61.1864 60.1096C61.2077 60.1736 61.2184 60.2482 61.2184 60.3336V77.1656C61.2184 78.2109 61.8477 78.7336 63.1064 78.7336ZM104.954 83.5336C106.426 82.2322 107.162 80.6642 107.162 78.8296C107.162 76.9949 106.426 75.4269 104.954 74.1256C103.482 72.8029 101.69 72.1416 99.5779 72.1416C97.4445 72.1416 95.6312 72.7922 94.1379 74.0936C92.6659 75.3949 91.9299 76.9736 91.9299 78.8296C91.9299 80.6856 92.6659 82.2642 94.1379 83.5656C95.6312 84.8669 97.4445 85.5176 99.5779 85.5176C101.69 85.5176 103.482 84.8562 104.954 83.5336ZM93.9139 71.8856C95.1085 71.4802 95.5352 70.7869 95.1939 69.8056L91.2579 57.7416C90.9165 56.7602 90.1485 56.4829 88.9539 56.9096C88.4205 57.1016 88.0365 57.3469 87.8019 57.6456C87.5672 57.3469 87.1832 57.1016 86.6499 56.9096C85.4552 56.4829 84.6872 56.7602 84.3459 57.7416L78.0739 76.6216C77.7325 77.6029 78.1592 78.2962 79.3539 78.7016C80.5485 79.1069 81.3165 78.8189 81.6579 77.8376L87.8019 59.3736L91.6099 71.0216C91.9512 72.0029 92.7192 72.2909 93.9139 71.8856ZM100.154 71.6616C101.434 71.6616 102.074 71.1496 102.074 70.1256V57.6136C102.074 56.5896 101.434 56.0776 100.154 56.0776C98.8952 56.0776 98.2659 56.5896 98.2659 57.6136V70.1256C98.2659 71.1496 98.8952 71.6616 100.154 71.6616ZM102.234 76.3975C102.981 77.0589 103.354 77.8696 103.354 78.8296C103.354 79.7896 102.981 80.6002 102.234 81.2616C101.509 81.9229 100.623 82.2536 99.5779 82.2536C98.5325 82.2536 97.6365 81.9229 96.8899 81.2616C96.1645 80.6002 95.8019 79.7896 95.8019 78.8296C95.8019 77.8696 96.1645 77.0589 96.8899 76.3975C97.6365 75.7362 98.5325 75.4056 99.5779 75.4056C100.623 75.4056 101.509 75.7362 102.234 76.3975ZM107.322 65.0376C107.813 64.5469 108.058 63.9602 108.058 63.2776C108.058 62.5949 107.813 62.0189 107.322 61.5496C106.853 61.0589 106.277 60.8136 105.594 60.8136C104.911 60.8136 104.325 61.0589 103.834 61.5496C103.365 62.0189 103.13 62.5949 103.13 63.2776C103.13 63.9602 103.365 64.5469 103.834 65.0376C104.325 65.5069 104.911 65.7416 105.594 65.7416C106.277 65.7416 106.853 65.5069 107.322 65.0376ZM121.882 78.8296C122.181 78.4242 122.33 77.9762 122.33 77.4856V73.7416C123.482 73.4429 124.506 72.8882 125.402 72.0776C126.789 70.7976 127.482 69.2829 127.482 67.5336C127.482 65.7629 126.789 64.2482 125.402 62.9896C125.295 62.9042 125.178 62.8082 125.05 62.7016H128.474C129.285 62.7016 129.69 62.1682 129.69 61.1016C129.711 60.0136 129.306 59.4696 128.474 59.4696H122.33V57.4536C122.33 56.4296 121.69 55.9176 120.41 55.9176C119.151 55.9176 118.522 56.4296 118.522 57.4536V59.4696H112.09C111.279 59.4696 110.874 60.0136 110.874 61.1016C110.895 62.1682 111.301 62.7016 112.09 62.7016H115.514C115.386 62.8082 115.269 62.9042 115.162 62.9896C113.775 64.2482 113.082 65.7629 113.082 67.5336C113.082 69.2829 113.775 70.7976 115.162 72.0776C116.122 72.9522 117.242 73.5282 118.522 73.8056V75.8536C118.522 75.9389 118.511 76.0136 118.49 76.0776C118.469 76.1416 118.383 76.1736 118.234 76.1736H111.162C110.373 76.1736 109.967 76.7176 109.946 77.8056C109.946 78.8722 110.351 79.4056 111.162 79.4056H120.314C121.082 79.4056 121.605 79.2136 121.882 78.8296ZM134.17 83.2776C135.45 83.2776 136.09 82.7656 136.09 81.7416V57.6136C136.09 56.5896 135.45 56.0776 134.17 56.0776C132.911 56.0776 132.282 56.5896 132.282 57.6136V81.7416C132.282 82.7656 132.911 83.2776 134.17 83.2776ZM122.714 65.0056C123.397 65.6456 123.738 66.4349 123.738 67.3736C123.738 68.3122 123.397 69.1122 122.714 69.7736C122.053 70.4136 121.253 70.7336 120.314 70.7336C119.354 70.7336 118.543 70.4136 117.882 69.7736C117.221 69.1122 116.89 68.3122 116.89 67.3736C116.89 66.4349 117.221 65.6456 117.882 65.0056C118.543 64.3442 119.354 64.0136 120.314 64.0136C121.253 64.0136 122.053 64.3442 122.714 65.0056ZM167.446 58.1412C166.851 59.5327 165.211 60.8274 162.187 61.2868C161.814 61.3434 161.428 61.3854 161.03 61.4125L159.232 46.4233C162.281 48.0255 164.635 50.0924 166.088 52.1651C167.845 54.6691 168.042 56.7497 167.446 58.1412ZM19.1632 41.7894H5.24698V56.6681L6.1286 56.4377L11.7828 47.5318C11.9006 47.2133 12.1776 46.9628 12.5355 46.8951L15.2376 46.3843L17.4011 45.9752L19.1632 41.7894ZM21.5368 41.2768C21.5245 41.3251 21.5085 41.3731 21.4886 41.4204L19.0923 47.1125C18.9964 47.4728 18.7021 47.7647 18.3113 47.8386L15.6092 48.3494L13.3632 48.7741L7.60622 57.8418C7.53521 57.9536 7.44568 58.0465 7.34416 58.1192C7.26428 58.1764 7.17478 58.2225 7.07732 58.2548C7.05539 58.2621 7.03323 58.2686 7.01087 58.2743L5.07979 58.7789C5.03142 58.7916 4.98295 58.8004 4.93469 58.8057L3.24698 59.2467V41.7894V39.7894H5.24698H24.4868L21.89 41.0015C21.7482 41.0677 21.6292 41.1629 21.5368 41.2768ZM151.247 82.9501L150.08 83.4945L147.51 89.6006C147.338 90.0096 146.925 90.2442 146.506 90.2094L141.18 91.2164L137.693 97.1012H151.247V82.9501ZM135.368 97.1012L139.687 89.8128C139.689 89.8092 139.691 89.8055 139.693 89.8018C139.696 89.7971 139.699 89.7924 139.702 89.7878C139.775 89.6706 139.869 89.5736 139.975 89.4988C140.082 89.4238 140.205 89.3687 140.341 89.3399C140.345 89.339 140.348 89.3382 140.352 89.3375C140.358 89.3363 140.364 89.3352 140.369 89.3342L145.892 88.2901L148.384 82.3695C148.471 82.1638 148.618 82.0023 148.796 81.8969C148.834 81.8726 148.874 81.8505 148.916 81.831L151.634 80.5622C151.688 80.5371 151.743 80.5172 151.798 80.5023L153.247 79.8261V97.1012V99.1012H151.247H134.164L135.349 97.1012H135.368Z" fill="#665D57"/>
</svg>
